<svg width="274" height="274" viewBox="0 0 274 274" fill="none" xmlns="http://www.w3.org/2000/svg">
<path d="M182.555 240.745L177.141 245.855C177 245.988 176.888 246.149 176.811 246.327C176.734 246.505 176.695 246.697 176.694 246.891V255.031C176.694 255.385 176.826 255.727 177.064 255.989C177.302 256.251 177.63 256.415 177.982 256.448L188.638 257.484L194.513 251.938C194.654 251.805 194.768 251.645 194.845 251.467C194.922 251.289 194.962 251.097 194.962 250.902V242.712C194.962 242.357 194.83 242.015 194.59 241.752C194.351 241.49 194.022 241.326 193.669 241.293L183.665 240.364C183.464 240.346 183.26 240.37 183.069 240.435C182.878 240.501 182.703 240.607 182.555 240.745Z" fill="#3FBDF1"/>
<path d="M181.988 239.325L175.634 245.323C175.468 245.48 175.336 245.668 175.247 245.877C175.156 246.086 175.11 246.312 175.11 246.54V256.091C175.11 256.507 175.264 256.907 175.544 257.215C175.823 257.522 176.207 257.715 176.62 257.754L189.125 258.971L196.022 252.461C196.188 252.304 196.319 252.116 196.409 251.907C196.499 251.697 196.546 251.472 196.545 251.244V241.632C196.545 241.216 196.389 240.814 196.109 240.507C195.828 240.199 195.442 240.007 195.027 239.969L183.289 238.873C183.053 238.852 182.814 238.881 182.59 238.959C182.365 239.036 182.16 239.161 181.988 239.325Z" fill="#3FBDF1"/>
<path d="M215.364 186.257V194.444C215.364 194.638 215.324 194.83 215.247 195.008C215.17 195.186 215.058 195.347 214.917 195.48L209.037 201.026L198.376 199.99C198.068 199.962 197.778 199.831 197.554 199.617C199.316 199.404 200.798 198.584 201.253 197.699C201.952 196.329 201.765 193.94 198.787 193.524C198.211 193.447 197.64 193.329 197.08 193.173V190.43C197.08 190.237 197.119 190.045 197.196 189.867C197.273 189.689 197.385 189.529 197.527 189.397L202.938 184.282C203.085 184.147 203.258 184.043 203.447 183.978C203.635 183.913 203.835 183.888 204.034 183.903L214.038 184.835C214.398 184.859 214.736 185.02 214.982 185.284C215.228 185.548 215.365 185.896 215.364 186.257Z" fill="#3FBDF1"/>
<path d="M216.951 185.177V194.787C216.95 195.016 216.903 195.242 216.812 195.452C216.721 195.662 216.588 195.852 216.422 196.009L209.531 202.513L197.025 201.3C196.611 201.259 196.228 201.066 195.948 200.758C195.669 200.45 195.515 200.049 195.515 199.634V199.595C196.196 199.704 196.888 199.711 197.57 199.617C199.332 199.403 200.815 198.584 201.269 197.699C201.968 196.329 201.782 193.94 198.803 193.523C198.227 193.446 197.657 193.329 197.096 193.173C195.759 192.764 195.677 192.318 195.677 192.318L195.513 192.422V190.093C195.511 189.866 195.556 189.641 195.646 189.431C195.736 189.222 195.867 189.034 196.033 188.879L202.39 182.878C202.563 182.715 202.768 182.591 202.992 182.513C203.217 182.435 203.455 182.406 203.692 182.426L215.43 183.522C215.843 183.562 216.227 183.753 216.508 184.058C216.789 184.364 216.946 184.763 216.951 185.177Z" fill="#3FBDF1"/>
<path d="M217.345 211.062L210.947 217.09C210.78 217.248 210.647 217.437 210.556 217.648C210.465 217.859 210.418 218.086 210.418 218.315V227.935C210.417 228.354 210.573 228.758 210.854 229.068C211.135 229.378 211.522 229.572 211.939 229.612L224.543 230.837L231.489 224.283C231.655 224.125 231.788 223.936 231.879 223.725C231.97 223.514 232.017 223.287 232.017 223.058V213.386C232.018 212.966 231.861 212.561 231.578 212.251C231.295 211.94 230.907 211.747 230.488 211.709L218.668 210.613C218.428 210.588 218.186 210.616 217.958 210.694C217.729 210.771 217.52 210.897 217.345 211.062Z" fill="#3FBDF1"/>
<path d="M216.674 209.385L209.163 216.474C208.968 216.658 208.812 216.881 208.706 217.128C208.599 217.375 208.544 217.64 208.544 217.909V229.198C208.544 229.689 208.728 230.163 209.058 230.526C209.388 230.89 209.842 231.118 210.33 231.166L225.11 232.601L233.259 224.907C233.455 224.723 233.611 224.501 233.718 224.254C233.824 224.007 233.879 223.74 233.878 223.472V212.112C233.874 211.62 233.688 211.148 233.355 210.787C233.023 210.426 232.567 210.202 232.078 210.158L218.205 208.867C217.928 208.841 217.648 208.874 217.384 208.963C217.12 209.052 216.878 209.196 216.674 209.385Z" fill="#3FBDF1"/>
<path d="M234.69 216.937L228.031 223.222C227.858 223.386 227.72 223.584 227.626 223.803C227.532 224.022 227.483 224.258 227.483 224.496V234.506C227.483 234.941 227.646 235.361 227.938 235.684C228.231 236.006 228.633 236.209 229.067 236.251L242.173 237.525L249.398 230.708C249.571 230.544 249.709 230.346 249.803 230.127C249.897 229.908 249.946 229.672 249.946 229.434V219.353C249.945 218.917 249.782 218.496 249.487 218.173C249.193 217.85 248.789 217.649 248.354 217.608L236.054 216.46C235.806 216.437 235.555 216.468 235.32 216.55C235.085 216.632 234.87 216.764 234.69 216.937Z" fill="#3FBDF1"/>
<path d="M233.995 215.192L226.181 222.568C225.977 222.76 225.815 222.993 225.705 223.25C225.594 223.507 225.537 223.784 225.537 224.064V235.813C225.537 236.324 225.727 236.816 226.069 237.194C226.413 237.572 226.884 237.808 227.392 237.857L242.763 239.353L251.257 231.347C251.461 231.155 251.623 230.923 251.734 230.665C251.844 230.408 251.901 230.131 251.901 229.851V218.028C251.901 217.516 251.709 217.022 251.364 216.644C251.019 216.265 250.545 216.029 250.035 215.981L235.598 214.639C235.307 214.612 235.014 214.647 234.737 214.743C234.461 214.838 234.208 214.991 233.995 215.192Z" fill="#3FBDF1"/>
<path d="M215.46 224.2L206.124 233.012C205.881 233.242 205.687 233.518 205.554 233.826C205.422 234.133 205.354 234.464 205.354 234.799V248.833C205.357 249.442 205.585 250.029 205.994 250.48C206.403 250.932 206.965 251.215 207.571 251.277L225.946 253.064L236.084 243.498C236.326 243.268 236.52 242.991 236.652 242.684C236.784 242.377 236.853 242.046 236.854 241.712V227.59C236.851 226.979 236.621 226.39 236.209 225.938C235.797 225.487 235.232 225.204 234.623 225.146L217.378 223.54C217.029 223.508 216.678 223.55 216.348 223.664C216.017 223.778 215.714 223.961 215.46 224.2Z" fill="#3FBDF1"/>
<path d="M214.481 221.754L203.521 232.095C203.236 232.364 203.008 232.689 202.853 233.05C202.697 233.41 202.617 233.799 202.617 234.191V250.661C202.617 251.377 202.883 252.068 203.364 252.599C203.846 253.129 204.507 253.461 205.22 253.53L226.781 255.626L238.673 244.392C238.958 244.123 239.186 243.798 239.341 243.437C239.497 243.077 239.577 242.689 239.577 242.296V225.733C239.577 225.015 239.31 224.323 238.826 223.792C238.342 223.261 237.678 222.93 236.963 222.864L216.734 220.981C216.325 220.942 215.913 220.991 215.524 221.124C215.135 221.257 214.78 221.472 214.481 221.754Z" fill="#3FBDF1"/>
<path d="M149.604 103.432C157.276 97.612 168.896 92.3868 184.443 95.0966" stroke="#CCDDE2" stroke-width="4.59" stroke-miterlimit="10"/>
<path d="M153.5 107.981C160.328 103.238 169.628 99.5962 181.755 100.377" stroke="white" stroke-width="4.59" stroke-linecap="round" stroke-linejoin="round"/>
<path d="M207.089 105.525C214.586 112.449 218.526 122.209 219.967 132.155C220.922 138.771 220.93 145.488 219.992 152.105C219.92 152.494 219.872 152.887 219.846 153.281C220.332 153.062 220.834 152.884 221.348 152.747C227.546 151.155 234.138 150.897 240.136 153.347C245.126 155.382 249.373 158.953 252.617 163.211C256.954 168.939 259.577 175.779 260.182 182.939C261.278 196.639 254.727 207.686 244.901 215.479L244.789 215.569" stroke="#CCDDE2" stroke-width="4.59" stroke-linejoin="round"/>
<path d="M205.892 112.118C215.608 123.536 216.224 138.888 215.367 153.52C215.347 153.84 215.227 154.69 215.114 155.553" stroke="white" stroke-width="4.59" stroke-linecap="round" stroke-linejoin="round"/>
<path d="M219.071 157.205C226.239 156.493 234.196 156.282 240.293 159.844C246.321 163.367 250.809 169.064 253.393 175.514C256.327 182.835 256.798 191.406 253.519 198.7C249.839 206.865 243.745 212.709 236.848 218.181C236.829 218.195 237.67 218.381 238.547 218.578" stroke="white" stroke-width="4.59" stroke-linecap="round" stroke-linejoin="round"/>
<path d="M94.338 241.373C92.8033 241.925 91.1963 242.251 89.5676 242.34C66.4338 243.762 44.7248 231.106 29.4356 216.937C28.7369 216.291 28.0656 215.628 27.4189 214.956" stroke="black" stroke-width="4.59" stroke-miterlimit="10"/>
<path d="M116.593 232.284C117.93 234.328 121.067 233.511 121.067 233.511C138.565 229.922 133.46 206.755 118.659 196.003" stroke="black" stroke-width="4.59" stroke-miterlimit="10"/>
<path d="M136.972 177.004C130.629 183.087 124.966 186.778 119.658 188.964L121.85 173.64C97.9436 159.342 91.5814 175.284 91.5814 175.284C90.6662 176.78 90.2415 194.529 90.1209 200.587C90.0908 200.587 89.3318 200.587 89.2989 200.587C74.2289 199.782 60.6084 185.997 60.6084 185.997C68.2229 166.877 95.4064 143.253 95.4064 143.253C114.274 130.022 128.675 134.471 128.675 134.471C124.239 134.792 130.284 147.075 130.284 147.075C139.192 154.81 142.48 143.258 142.48 143.258C151.1 163.891 136.972 177.004 136.972 177.004Z" fill="#353642"/>
<path d="M152.561 168.08C152.561 168.08 150.996 188.181 137.398 187.515C137.398 187.515 132.298 181.999 132.427 177.804C132.556 173.609 143.935 147.412 143.935 147.412C143.935 147.412 151.311 165.808 152.561 168.08Z" fill="#353642"/>
<path d="M28.669 216.14V216.208L29.8308 217.304C29.8308 217.304 29.3486 217.751 28.669 218.4C27.784 219.222 26.5647 220.357 25.655 221.222C24.0795 222.718 16.0239 230.771 13.873 223.447C14.2977 220.885 15.9253 215.616 22.1643 209.216C31.0364 200.097 29.8007 201.229 32.0283 201.379C33.0558 201.445 34.3874 202.048 35.5273 202.681C32.6448 203.881 28.2745 207.21 28.669 216.14Z" fill="#3FBDF1"/>
<path d="M37.9357 204.196C37.9357 204.196 29.2143 205.018 28.669 216.139V216.208C28.6334 216.893 28.6334 217.614 28.669 218.381C27.784 219.203 26.5647 220.337 25.655 221.203C24.0795 222.699 16.0239 230.752 13.873 223.428C14.2977 220.866 15.9253 215.597 22.1643 209.196C31.0364 200.078 29.8007 201.209 32.0283 201.36C33.0558 201.426 34.3874 202.028 35.5273 202.661C36.3558 203.131 37.1598 203.643 37.9357 204.196Z" fill="#3FBDF1"/>
<path d="M119.601 189.427C129.465 183.243 145.291 175.325 145.252 157.547C145.252 153.325 144.817 149.875 143.882 146.609L143.792 146.297C143.466 145.24 143.026 144.221 142.48 143.258" stroke="black" stroke-width="4.59" stroke-miterlimit="10"/>
<path d="M72.0205 220.2C69.738 218.257 67.6776 216.383 66.3076 215.09L66.2856 215.068C65.2061 214.062 64.5594 213.424 64.5594 213.424C63.6415 212.171 62.825 210.958 62.0934 209.79C62.0792 209.773 62.0688 209.752 62.0633 209.73C56.7422 201.126 56.4216 194.271 61.3783 184.185C61.4071 184.112 61.4399 184.041 61.4769 183.971C62.0249 182.875 62.6305 181.73 63.299 180.546C73.2206 163.01 102.33 130.336 127.442 134.468" stroke="black" stroke-width="4.59" stroke-miterlimit="10"/>
<path d="M29.444 216.929C24.238 223.39 20.5856 225.683 18.1168 226.19C15.6481 226.697 13.3739 224.508 13.7328 221.976C14.8781 213.975 24.1887 204.404 28.7699 200.124C29.4717 199.464 30.372 199.055 31.3307 198.961C32.2895 198.867 33.2523 199.093 34.0691 199.604L36.3625 201.031C43.1385 205.257 50.2104 209.377 57.3207 213.175C63.8392 216.66 71.0016 221.14 78.7174 220.126" stroke="black" stroke-width="4.59" stroke-miterlimit="10"/>
<path d="M122.823 156.925C122.912 160.105 122.83 163.288 122.579 166.46C121.711 177.938 119.365 189.26 118.075 200.691C117.253 208.007 116.748 215.356 116.65 222.718C116.568 228.899 116.551 233.615 116.735 239.796C116.853 243.775 119.102 246.315 122.527 248.016C125.412 249.447 127.423 249.156 129.221 252.041C132.917 257.987 125.659 258.409 122.705 257.626C114.419 255.434 102.229 254.231 97.4972 245.991C93.7242 239.415 93.2447 235.116 92.2912 227.768C91.25 219.805 90.3732 211.81 90.1869 203.776C89.8992 190.841 90.902 170.033 95.5381 157.799" stroke="black" stroke-width="4.59" stroke-miterlimit="10"/>
<path d="M226.324 218.277L226.28 218.321L225.253 218.217L225.291 218.181L226.324 218.277Z" fill="#3FBDF1"/>
<path d="M210.023 216.876L218.465 217.712L210.023 216.945V216.876Z" fill="#3FBDF1"/>
<path d="M226.324 218.277L226.28 218.32L225.252 218.216L225.14 218.32L224.649 218.277L224.762 218.172L224.797 218.134L225.291 218.181L226.324 218.277Z" fill="#3FBDF1"/>
<path d="M226.324 218.277L226.28 218.32L225.252 218.216L224.762 218.172L224.797 218.134L225.291 218.181L226.324 218.277Z" fill="#3FBDF1"/>
<path d="M204.769 232.936L217.249 234.155L204.769 233.034V232.936Z" fill="#3FBDF1"/>
<path d="M228.874 234.986L228.809 235.052L227.288 234.898L227.124 235.052L226.397 234.986L226.562 234.832L226.617 234.778L227.345 234.843L228.874 234.986Z" fill="#3FBDF1"/>
<path d="M228.875 234.986L228.809 235.052L227.289 234.898L226.562 234.832L226.617 234.778L227.346 234.843L228.875 234.986Z" fill="#3FBDF1"/>
<path d="M143.787 146.295C143.787 146.295 151.848 173.185 161.277 179.449C170.16 185.348 182.087 182.789 191.455 179.566C194.041 178.676 196.642 177.807 199.401 177.849C203.283 177.903 211.197 178.764 212.224 183.282" stroke="black" stroke-width="4.59" stroke-miterlimit="10"/>
<path d="M133.191 180.415C147.102 208.585 171.768 202.965 184.465 197.874C185.615 197.406 186.863 197.228 188.098 197.354C189.326 197.488 190.29 198.009 191.433 198.45C193.375 199.217 195.57 199.768 197.677 199.625C199.784 199.483 202.352 197.877 201.464 195.392C200.757 193.411 198.554 193.553 196.866 193.172C195.178 192.792 194.773 190.331 196.351 189.534C196.371 189.528 196.388 189.517 196.403 189.504" stroke="black" stroke-width="4.59" stroke-miterlimit="10"/>
<path d="M196.545 240.114L189.125 247.126L175.11 245.821L182.538 238.812L196.545 240.114Z" stroke="black" stroke-width="4.59" stroke-linecap="square" stroke-linejoin="round"/>
<path d="M189.125 247.126V258.974L175.11 257.612V245.822L189.125 247.126Z" stroke="black" stroke-width="4.59" stroke-linecap="square" stroke-linejoin="round"/>
<path d="M196.546 240.114V251.97L189.126 258.973V247.126L196.546 240.114Z" stroke="black" stroke-width="4.59" stroke-linecap="square" stroke-linejoin="round"/>
<path d="M239.693 223.22L226.996 235.218L203.021 232.985L208.632 227.686V230.675L225.141 232.283L233.878 224.031V222.674L239.693 223.22Z" stroke="black" stroke-width="4.59" stroke-linecap="square" stroke-linejoin="round"/>
<path d="M226.996 235.215V255.483L203.021 253.154V232.988L226.996 235.215Z" stroke="black" stroke-width="4.59" stroke-linecap="square" stroke-linejoin="round"/>
<path d="M239.69 223.222V243.504L226.995 255.483V235.215L239.69 223.222Z" stroke="black" stroke-width="4.59" stroke-linecap="square" stroke-linejoin="round"/>
<path d="M233.878 210.068L225.14 218.32L208.632 216.789L217.378 208.533L233.878 210.068Z" stroke="black" stroke-width="4.59" stroke-linecap="square" stroke-linejoin="round"/>
<path d="M225.14 221.351V218.32L208.632 216.789V229.53" stroke="black" stroke-width="4.59" stroke-linecap="square" stroke-linejoin="round"/>
<path d="M233.878 210.068V224.031L225.141 232.284V218.321L233.878 210.068Z" stroke="black" stroke-width="4.59" stroke-linecap="square" stroke-linejoin="round"/>
<path d="M234.122 214.983L234.497 214.63L251.935 216.252L242.698 224.984L240.109 224.74" stroke="black" stroke-width="4.59" stroke-linecap="square" stroke-linejoin="round"/>
<path d="M239.955 224.724L242.698 224.984V239.728L239.692 239.438" stroke="black" stroke-width="4.59" stroke-linecap="square" stroke-linejoin="round"/>
<path d="M251.932 216.251V231.009L242.695 239.728V224.978L251.932 216.251Z" stroke="black" stroke-width="4.59" stroke-linecap="square" stroke-linejoin="round"/>
<path d="M216.948 183.717L209.528 190.728L195.513 189.424L202.941 182.412L216.948 183.717Z" stroke="black" stroke-width="4.59" stroke-linecap="square" stroke-linejoin="round"/>
<path d="M195.51 199.557V201.217L209.525 202.579V190.731L196.403 189.509L195.51 189.427V190.455V191.521" stroke="black" stroke-width="4.59" stroke-linecap="square" stroke-linejoin="round"/>
<path d="M216.947 183.717V195.573L209.527 202.576V190.729L216.947 183.717Z" stroke="black" stroke-width="4.59" stroke-linecap="square" stroke-linejoin="round"/>
<path d="M145.253 132.915C146.527 134.622 148.763 134.962 150.245 133.786" stroke="black" stroke-width="4.59" stroke-miterlimit="10"/>
<path d="M165.51 115.902C164.961 117.269 163.996 118.427 162.752 119.214C161.508 120.001 160.047 120.376 158.578 120.286C158.546 119.686 158.368 119.102 158.06 118.585C156.742 116.437 155.504 119.903 150.73 116.552C144.119 111.894 141.091 113.538 141.091 113.538C140.817 113.68 140.601 115.33 140.527 115.617C140.075 117.289 139.625 118.952 139.157 120.621C138.883 121.64 138.609 122.651 138.335 123.662C138.264 123.475 138.183 123.292 138.091 123.114C137.789 120.706 137.047 117.807 134.351 118.596C133.804 118.766 133.306 119.062 132.896 119.462C130.898 121.396 131.841 123.7 133.342 125.528C133.704 126.08 134.125 126.591 134.597 127.052C134.222 127.6 132.693 129.792 132.693 129.792C132.534 130.011 129.15 124.761 128.92 124.207C128.654 122.903 128.608 121.562 128.786 120.243C129.545 114.817 132.707 108.852 137.554 106.417C138.759 105.814 138.524 105.019 138.754 103.983C138.761 103.923 138.788 103.867 138.831 103.823C138.873 103.78 138.929 103.752 138.989 103.744C139.05 103.735 139.111 103.748 139.164 103.778C139.216 103.809 139.257 103.856 139.28 103.912C140.431 105.671 143.85 106.038 143.85 106.038C155.591 104.858 159.238 110.732 161.512 112.025C162.43 112.533 163.493 112.714 164.526 112.538C164.533 112.872 164.632 113.199 164.812 113.481C164.991 113.763 165.245 113.99 165.546 114.138L165.403 114.686C165.3 115.092 165.337 115.521 165.51 115.902Z" fill="#3FBDF1"/>
<path d="M158.57 120.287C160.037 120.376 161.495 120.002 162.737 119.218C163.98 118.434 164.945 117.279 165.496 115.916C165.711 115.395 165.878 114.856 165.995 114.305L165.907 114.281C165.781 114.25 165.66 114.203 165.546 114.141C165.245 113.993 164.991 113.766 164.812 113.483C164.632 113.201 164.533 112.875 164.526 112.541C164.517 112.356 164.538 112.171 164.587 111.993L165.296 109.368C165.296 109.368 162.921 110.628 160.693 109.34C158.465 108.053 155.287 102.194 143.031 103.353C143.031 103.353 140.338 103.104 139.195 101.312C139.171 101.257 139.13 101.211 139.078 101.182C139.025 101.152 138.965 101.141 138.905 101.149C138.846 101.158 138.791 101.186 138.748 101.228C138.706 101.271 138.679 101.326 138.672 101.386C138.442 102.422 137.937 103.101 136.735 103.704C131.877 106.143 128.712 112.108 127.967 117.53C127.686 119.794 128.013 122.092 128.915 124.188C129.145 124.736 132.529 129.992 132.688 129.772C132.688 129.772 134.216 127.58 134.592 127.032L134.682 126.912L134.564 126.805C134.127 126.401 133.716 125.968 133.337 125.509C131.835 123.681 130.893 121.377 132.89 119.443C133.3 119.043 133.799 118.747 134.345 118.577C137.041 117.788 137.784 120.687 138.085 123.095C138.143 123.555 138.152 124.02 138.11 124.482L138.329 123.66C138.603 122.648 138.877 121.637 139.151 120.618C139.609 118.949 140.058 117.286 140.521 115.615C140.595 115.327 140.823 113.678 141.086 113.535C141.086 113.535 144.113 111.908 150.725 116.549C155.498 119.9 156.737 116.434 158.055 118.582C158.362 119.099 158.54 119.683 158.572 120.284C158.579 120.477 158.574 120.67 158.556 120.862C158.56 120.887 158.56 120.913 158.556 120.939C158.518 121.358 158.463 121.777 158.408 122.185C157.86 126.126 156.791 130.167 154.69 133.584C152.142 137.724 146.508 141.335 141.658 138.483C140.149 137.592 138.855 136.327 137.699 135.017" stroke="black" stroke-width="4.59" stroke-miterlimit="10"/>
<path d="M155.004 128.71C155.307 128.121 155.157 127.44 154.67 127.19C154.182 126.94 153.542 127.215 153.239 127.804C152.937 128.394 153.086 129.075 153.574 129.325C154.061 129.575 154.702 129.3 155.004 128.71Z" fill="black"/>
<path d="M147.36 127.294C147.662 126.705 147.513 126.024 147.025 125.774C146.538 125.524 145.897 125.799 145.595 126.388C145.292 126.978 145.442 127.659 145.929 127.909C146.417 128.159 147.057 127.884 147.36 127.294Z" fill="black"/>
<path d="M148.661 129.687C148.661 129.687 150.998 131.528 151.382 130.046C151.503 129.588 152.82 125.138 152.82 125.138C152.82 125.138 155.221 123.264 158.142 125.363" stroke="black" stroke-width="4.59" stroke-miterlimit="10"/>
<path d="M150.204 123.435C150.204 123.435 146.39 120.744 143.212 123.303" stroke="black" stroke-width="4.59" stroke-miterlimit="10"/>
<path d="M131.698 128.525L129.72 134.904L127.459 134.479C126.037 136.852 127.87 144.522 130.295 147.083C137.214 154.416 141.469 145.952 141.469 145.952L142.48 143.25L143.946 139.343" stroke="black" stroke-width="4.59" stroke-miterlimit="10"/>
<path d="M191.622 108.98C192.138 109.443 192.55 110.009 192.833 110.642C193.117 111.274 193.264 111.959 193.266 112.652V113.435C193.268 113.989 193.386 114.537 193.612 115.042C193.839 115.548 194.168 116.001 194.58 116.372C194.991 116.742 195.476 117.023 196.002 117.195C196.529 117.368 197.085 117.428 197.636 117.373C199.683 117.165 201.179 115.304 201.179 113.235V112.649C201.178 111.961 201.32 111.281 201.597 110.652C201.874 110.022 202.28 109.458 202.788 108.994" stroke="#CCDDE2" stroke-width="4.59" stroke-linejoin="round"/>
<path d="M191.622 108.98C192.138 109.443 192.55 110.009 192.833 110.642C193.117 111.274 193.264 111.959 193.266 112.652V113.435C193.268 113.989 193.386 114.537 193.612 115.042C193.839 115.548 194.168 116.001 194.58 116.372C194.991 116.742 195.476 117.023 196.002 117.195C196.529 117.368 197.085 117.428 197.636 117.373C199.683 117.165 201.179 115.304 201.179 113.235V112.649C201.178 111.961 201.32 111.281 201.597 110.652C201.874 110.022 202.28 109.458 202.788 108.994" stroke="#CCDDE2" stroke-width="4.59" stroke-linejoin="round"/>
<path d="M191.621 108.981C191.359 108.753 191.074 108.551 190.772 108.378C188.455 107.048 186.606 105.034 185.48 102.611C184.353 100.188 184.004 97.4763 184.479 94.8473C184.955 92.2183 186.233 89.801 188.137 87.9269C190.042 86.053 192.479 84.8142 195.116 84.3805C197.752 83.947 200.458 84.3399 202.862 85.5053C205.266 86.6706 207.251 88.5516 208.544 90.8896C209.837 93.228 210.374 95.9088 210.083 98.5647C209.791 101.221 208.685 103.721 206.916 105.723C206.888 105.75 206.864 105.779 206.842 105.811C205.907 106.838 204.817 107.711 203.612 108.4C203.314 108.565 203.038 108.766 202.79 108.997" stroke="#CCDDE2" stroke-width="4.59" stroke-linejoin="round"/>
<path d="M195.836 108.138C195 106.62 193.592 104.608 192.6 103.175C191.521 101.656 190.64 100.005 189.978 98.2626C189.89 98.0746 189.856 97.8658 189.879 97.6598C189.893 97.5576 189.945 97.4644 190.026 97.4C190.107 97.3359 190.209 97.3052 190.312 97.3145C190.496 97.3501 190.586 97.5419 190.682 97.7091C191.076 98.4919 191.637 99.1785 192.326 99.7202C192.712 100.019 193.26 100.268 193.663 99.9942C193.785 99.8871 193.884 99.7553 193.951 99.6074C194.019 99.4597 194.054 99.2991 194.055 99.1366C194.176 97.9828 193.874 96.8241 193.205 95.876C192.931 95.5034 192.455 95.1417 192.068 95.3856C191.682 95.6294 191.794 96.2322 192.024 96.6377C192.434 97.3893 192.991 98.0499 193.664 98.5788C194.337 99.1079 195.11 99.4945 195.937 99.7148C196.343 99.8507 196.781 99.8553 197.189 99.7285C197.416 99.6252 197.614 99.4682 197.767 99.2709C197.919 99.0736 198.021 98.8424 198.063 98.5968C198.145 98.1036 198.103 97.5981 197.94 97.1255C197.715 96.3884 197.28 95.6349 196.548 95.3883C196.319 95.2993 196.065 95.2993 195.836 95.3883C195.684 95.4697 195.558 95.5924 195.472 95.742C195.386 95.8916 195.344 96.0626 195.351 96.235C195.369 96.5799 195.474 96.9148 195.658 97.2077C196.082 97.9486 196.68 98.5755 197.401 99.0347C198.121 99.4936 198.941 99.7712 199.792 99.8435C200.361 99.9244 200.939 99.7863 201.409 99.4572C201.605 99.2753 201.763 99.0561 201.874 98.8122C201.984 98.5686 202.045 98.3053 202.053 98.0379C202.115 97.2359 201.889 96.438 201.414 95.7883C201.319 95.6596 201.173 95.5143 201.017 95.5664C200.861 95.6185 200.817 95.7938 200.798 95.95C200.727 96.5638 200.778 97.1855 200.949 97.7792C201.12 98.3727 201.408 98.9265 201.795 99.4079C202.223 99.9312 202.872 100.386 203.53 100.23C203.779 100.154 204.002 100.012 204.176 99.8186C204.35 99.6257 204.469 99.389 204.519 99.1339C204.614 98.6223 204.562 98.0943 204.371 97.6104C204.135 97.7551 203.934 97.9488 203.78 98.1787C203.626 98.4086 203.524 98.6689 203.48 98.9421C203.36 99.4901 203.368 100.038 203.275 100.586C202.76 103.66 199.373 105.033 198.716 107.984" stroke="#CCDDE2" stroke-width="4.59" stroke-linejoin="round"/>
<path d="M197.206 79.5752L197.077 71.7881" stroke="#CCDDE2" stroke-width="4.59" stroke-linejoin="round"/>
<path d="M182.352 86.8202L176.963 81.2004" stroke="#CCDDE2" stroke-width="4.59" stroke-linejoin="round"/>
<path d="M212.111 87.1707L217.621 81.666" stroke="#CCDDE2" stroke-width="4.59" stroke-linejoin="round"/>
<path d="M215.055 160.739C216.613 160.739 217.877 159.476 217.877 157.917C217.877 156.358 216.613 155.095 215.055 155.095C213.496 155.095 212.232 156.358 212.232 157.917C212.232 159.476 213.496 160.739 215.055 160.739Z" fill="#3FBDF1"/>
</svg>
