<svg width="270" height="270" viewBox="0 0 270 270" fill="none" xmlns="http://www.w3.org/2000/svg">
<path d="M125.377 252.053C125.377 252.053 123.625 249.375 123.625 243.341C123.625 237.306 126.344 234.63 126.344 234.63C123.396 243.238 129.476 252.059 129.476 252.059C129.66 251.729 131.412 249.24 131.595 244.817C131.595 244.817 133.253 248.614 131.865 252.059" stroke="#CCDDE2" stroke-width="3.65" stroke-linejoin="round"/>
<path d="M163.955 252.053C163.955 252.053 165.035 250.406 165.035 246.696C165.035 242.987 163.35 241.337 163.35 241.337C165.164 246.629 161.425 252.053 161.425 252.053C161.311 251.851 160.234 250.32 160.121 247.601C160.121 247.601 159.103 249.934 159.953 252.053" stroke="#CCDDE2" stroke-width="3.65" stroke-linejoin="round"/>
<path d="M215.23 213.133L225.871 223.334V153.817" stroke="#CCDDE2" stroke-width="3.65" stroke-miterlimit="10"/>
<path d="M225.871 213.473L238.756 202.152" stroke="#CCDDE2" stroke-width="3.65" stroke-miterlimit="10"/>
<path d="M225.871 185.274L217.088 175.441" stroke="#CCDDE2" stroke-width="3.65" stroke-miterlimit="10"/>
<path d="M225.871 176.426L232.313 172.546" stroke="#CCDDE2" stroke-width="3.65" stroke-miterlimit="10"/>
<path d="M225.871 157.848C225.871 156.668 221.481 148.341 221.481 148.341" stroke="#CCDDE2" stroke-width="3.65" stroke-miterlimit="10"/>
<path d="M213.03 168.596C215.128 167.138 216.926 165.415 217.676 162.327C218.945 157.102 217.347 151.483 217.722 146.167C217.992 142.584 219.458 138.067 221.772 135.305C224.742 131.749 228.522 134.33 230.48 137.683C233.82 143.37 232.321 150.352 232.302 156.6C232.302 161.43 233.766 165.596 237.678 168.547C241.188 171.201 245.281 173.594 246.739 178.022C248.324 182.852 240.47 181.591 238.234 183.538C234.206 187.048 242.454 195.183 244.755 197.507C250.511 203.342 261.63 213.902 253.8 223.508C248.902 229.529 244.08 228.214 238.75 228.43L235.885 228.393C235.112 228.382 234.345 228.525 233.628 228.814C232.91 229.102 232.258 229.53 231.707 230.073C231.157 230.616 230.72 231.262 230.421 231.976C230.123 232.689 229.97 233.454 229.97 234.227L229.845 252.884" stroke="#CCDDE2" stroke-width="3.65" stroke-miterlimit="10"/>
<path d="M205.2 175.123C204.628 176.027 204.174 177 203.85 178.02C203.232 179.91 203.934 180.828 205.2 181.378C209.866 183.43 222.161 180.223 202.465 201.067C202.011 201.542 201.59 202.001 201.182 202.46C200.912 202.749 200.672 203.032 200.421 203.316" stroke="#CCDDE2" stroke-width="3.65" stroke-miterlimit="10"/>
<path d="M28.917 251.714C27.7695 251.484 26.6409 251.209 25.5447 250.887C21.0303 249.567 15.7815 247.315 13.9887 242.582C13.5375 241.358 13.3951 240.041 13.574 238.748C13.753 237.455 14.2478 236.227 15.0147 235.171C15.8247 234.042 16.9654 233.193 18.279 232.741C21.1329 231.836 24.3 233.281 26.4087 235.4C28.5174 237.52 29.889 240.26 31.5387 242.769C30.0402 239.407 28.5174 235.954 28.2987 232.279C28.1367 229.417 28.917 226.312 30.8907 224.163C32.7078 222.181 36.9549 220.631 39.4578 222.087C41.1102 223.048 41.7663 225.086 42.0525 226.976C42.8274 232.141 41.8311 237.387 40.8375 242.515C41.5044 239.774 42.2199 237.007 43.5807 234.534C44.9415 232.06 47.0232 229.876 49.6935 228.961C51.5619 228.321 53.784 228.388 55.35 229.595C56.8107 230.721 57.4641 232.622 57.6639 234.455C57.9987 237.528 57.2751 240.646 56.0439 243.476C51.408 254.041 38.529 253.641 28.917 251.714Z" stroke="#CCDDE2" stroke-width="3.65" stroke-miterlimit="10"/>
<path d="M39.3931 246.486C39.3931 246.486 46.5508 248.473 49.078 238.526" stroke="#CCDDE2" stroke-width="3.65" stroke-miterlimit="10"/>
<path d="M36.2072 229.5C34.2173 234.012 36.2072 247.544 36.2072 247.544" stroke="#CCDDE2" stroke-width="3.65" stroke-miterlimit="10"/>
<path d="M29.5729 246.178C29.2759 246.127 26.4058 245.725 23.9569 244.602C22.0669 243.73 20.4199 242.426 20.4199 240.517" stroke="#CCDDE2" stroke-width="3.65" stroke-miterlimit="10"/>
<path d="M24.5322 240.517C24.5322 240.517 21.7323 243.778 23.9571 244.602" stroke="#CCDDE2" stroke-width="3.65" stroke-miterlimit="10"/>
<path d="M22.6802 247.571C23.0771 247.031 25.1507 248.127 26.5034 245.514" stroke="#CCDDE2" stroke-width="3.65" stroke-miterlimit="10"/>
<path d="M35.324 235.472C34.6166 234.932 32.759 235.472 32.4917 231.228" stroke="#CCDDE2" stroke-width="3.65" stroke-miterlimit="10"/>
<path d="M35.6401 239.455C35.6401 239.455 38.737 238.337 38.737 235.91" stroke="#CCDDE2" stroke-width="3.65" stroke-miterlimit="10"/>
<path d="M42.2876 246.543C42.2876 246.543 43.9076 242.374 44.5664 240.517" stroke="#CCDDE2" stroke-width="3.65" stroke-miterlimit="10"/>
<path d="M47.3042 242.557C47.3042 242.557 49.0781 243.964 51.2003 241.709" stroke="#CCDDE2" stroke-width="3.65" stroke-miterlimit="10"/>
<path d="M47.304 240.516C47.304 240.516 46.17 240.03 46.6884 237.149" stroke="#CCDDE2" stroke-width="3.65" stroke-miterlimit="10"/>
<path d="M115.627 211.49V226.578H68.1992C69.6173 220.95 72.8737 215.955 77.4524 212.388C82.031 208.82 87.6695 206.883 93.4739 206.884H111.024C112.245 206.885 113.416 207.371 114.279 208.235C115.142 209.098 115.627 210.269 115.627 211.49Z" fill="#D7E8F0"/>
<path d="M127.248 184.559C127.248 184.559 127.98 184.386 128.223 186.989C128.466 189.591 130.383 195.359 127.248 195.237C124.113 195.116 86.3998 195.17 86.3998 195.17C86.3998 195.17 80.584 196.844 79.8793 192.243C79.1746 187.642 79.4878 181.645 85.6141 179.68C85.6141 179.68 94.1947 183.706 103.234 184.113C112.274 184.521 127.248 184.559 127.248 184.559Z" fill="#2E2E2E"/>
<path d="M200.34 207.36C200.34 207.36 198.323 205.967 193.533 207.787C188.744 209.607 179.731 211.861 175.098 226.471H115.647V211.378C115.646 210.156 115.16 208.985 114.296 208.121C113.431 207.257 112.26 206.772 111.038 206.772H90.3718C85.0385 206.77 79.8332 208.404 75.4584 211.455C71.0838 214.505 67.751 218.825 65.9098 223.83H65.2402V220.204C65.2726 219.824 65.3185 219.448 65.3644 219.081C67.0357 206.326 78.1867 196.941 91.0468 196.941H124.111V212.148C124.111 213.593 124.611 214.995 125.526 216.115C126.44 217.235 127.714 218.004 129.13 218.293C129.538 218.371 129.952 218.41 130.367 218.409H151.238C156.228 218.423 161.137 217.144 165.486 214.696C174.936 209.367 184.761 198.615 184.996 174.774V167.214L185.234 167.058C185.234 167.058 186.343 162.141 191.498 163.251C192.199 163.696 192.826 164.248 193.358 164.887C194.322 166.059 195.145 167.8 194.262 169.941C194.262 169.941 192.483 173.313 188.428 172.782C188.352 173.036 188.299 173.298 188.271 173.562C188.237 173.888 188.237 174.216 188.271 174.542C188.414 175.692 189.138 176.972 191.673 176.94H191.824C196.59 176.796 200.224 172.663 200.297 168.707C200.356 165.413 198.647 161.687 193.876 158.58C193.869 158.581 193.862 158.581 193.855 158.58C193.299 158.21 192.725 157.868 192.135 157.556C191.649 157.286 191.141 157.035 190.604 156.787C189.69 156.607 188.818 156.257 188.034 155.755H203.28C203.747 155.755 204.195 155.941 204.525 156.271C204.855 156.601 205.041 157.049 205.041 157.516V181.141C205.041 181.372 204.996 181.601 204.908 181.815C204.819 182.029 204.69 182.223 204.526 182.387C204.363 182.551 204.168 182.681 203.955 182.77C203.741 182.858 203.512 182.904 203.28 182.904C202.874 182.901 202.471 182.979 202.095 183.134C201.72 183.288 201.378 183.516 201.091 183.803C200.803 184.09 200.576 184.432 200.422 184.808C200.267 185.183 200.189 185.586 200.192 185.993V198.413C200.185 200.461 200.83 202.458 202.034 204.115C203.238 205.772 204.938 207.004 206.888 207.63C206.988 207.663 207.085 207.695 207.185 207.722C211.616 208.956 215.641 211.34 218.852 214.633C222.063 217.926 224.345 222.01 225.466 226.471H178.84C179.24 224.975 183.886 209.007 200.34 207.36Z" fill="#D7E8F0"/>
<path d="M94.9509 183.009C92.6751 182.56 90.4454 181.902 88.29 181.043L94.9509 183.009Z" fill="#2E2E2E"/>
<path d="M74.2825 165.942C70.3729 165.154 65.3509 164.425 62.9857 160.79C62.6509 160.283 62.2297 159.678 62.1379 159.068C62.1252 158.997 62.119 158.924 62.119 158.852C62.0785 157.634 63.5311 157.712 64.4626 157.858C66.6847 158.201 68.8798 158.687 71.0614 159.208C71.7129 159.359 72.3593 159.515 73 159.675C73.179 161.807 73.6094 163.911 74.2825 165.942Z" fill="black"/>
<path d="M184.024 164.265C182.277 168.985 178.726 169.004 178.67 169.004C171.091 167.179 170.065 166.974 164.316 164.797C146.658 158.109 136.82 150.15 131.582 143.61C126.962 148.276 125.661 150.544 124.157 155.393C124.067 155.694 123.959 155.989 123.833 156.276C123.833 156.276 123.833 156.309 123.814 156.322L123.506 156.973C123.504 156.982 123.499 156.99 123.492 156.997C122.545 158.811 119.699 161.244 117.887 162.103L84.7583 161.86L71.0639 159.206C68.8796 158.687 66.6871 158.201 64.465 157.856C63.8008 157.75 62.8666 157.686 62.4076 158.099C62.3029 158.191 62.2219 158.308 62.1714 158.439C62.1212 158.569 62.1031 158.71 62.1188 158.849C62.1188 157.264 62.9422 156.179 63.9007 155.031C64.9186 153.795 65.9446 152.558 66.9625 151.33C72.6865 144.501 78.2728 137.56 84.0103 130.748C85.4224 129.071 86.8615 127.429 88.4005 125.871C93.7816 120.404 100.011 115.611 106.828 112.05C117.874 106.313 126.444 104.22 133.396 104.685H133.482C134.068 104.73 134.638 104.79 135.205 104.863L135.443 104.895C140.772 105.651 145.122 107.97 148.943 111.264C149.398 111.791 149.805 112.359 150.158 112.96C151.721 115.609 152.793 118.441 153.889 121.298C159.149 135.068 168.739 147.264 182.568 153.079L182.614 154.119V154.454C182.614 154.375 182.614 154.27 182.614 154.119C182.614 153.876 182.595 153.538 182.577 153.079C182.577 153.033 182.577 152.988 182.577 152.942L183.597 153.482L184.701 154.081C184.699 154.101 184.699 154.121 184.701 154.14C185.004 158.509 184.826 162.092 184.024 164.265Z" fill="#2E2E2E"/>
<path d="M35.6318 252.334H213.052" stroke="black" stroke-width="3.65" stroke-miterlimit="10"/>
<path d="M124.254 155.863H136.277C144.879 155.863 150.047 164.147 148.986 172.603L143.68 211.283H130.486L127.98 184.494" stroke="black" stroke-width="3.65" stroke-miterlimit="10"/>
<path d="M127.418 128.698C127.418 128.698 121.559 155.204 178.896 169.02C178.896 169.02 186.227 169.228 184.693 154.113" stroke="black" stroke-width="3.65" stroke-miterlimit="10"/>
<path d="M130.923 184.558H117.339C97.408 184.558 82.3042 183.187 75.7216 169.004C74.353 166.062 73.5095 162.904 73.2295 159.672" stroke="black" stroke-width="3.65" stroke-miterlimit="10"/>
<path d="M184.253 163.766C187.796 163.793 186.122 163.555 189.578 164.503C191.489 165.043 193.147 166.001 193.152 168.394C193.152 171.509 186.456 171.79 188.479 175.306C190.639 179.067 197.478 175.492 198.831 173.059C204.852 162.208 191.406 157.024 183.322 153.395" stroke="black" stroke-width="3.65" stroke-miterlimit="10"/>
<path d="M74.5202 165.943C70.6106 165.154 65.5913 164.425 63.2234 160.791C62.8886 160.283 62.4674 159.679 62.3756 159.068C62.1542 157.629 63.7256 157.718 64.703 157.859C71.2559 158.858 77.5442 161.158 84.143 161.755C85.9817 161.92 87.8366 162.001 89.6834 162.001H115.522C117.513 161.993 119.449 161.347 121.046 160.158C122.643 158.969 123.817 157.299 124.395 155.394C125.669 151.282 127.845 146.878 131.55 143.514" stroke="black" stroke-width="3.65" stroke-miterlimit="10"/>
<path d="M157.27 105.77C157 105.77 142.314 104.223 135.427 104.868" stroke="black" stroke-width="3.65" stroke-miterlimit="10"/>
<path d="M189.905 172.786C192.537 172.786 194.67 170.653 194.67 168.021C194.67 165.389 192.537 163.255 189.905 163.255C187.273 163.255 185.139 165.389 185.139 168.021C185.139 170.653 187.273 172.786 189.905 172.786Z" fill="#3FBDF1"/>
<path d="M189.905 172.786C192.537 172.786 194.67 170.653 194.67 168.021C194.67 165.389 192.537 163.255 189.905 163.255C187.273 163.255 185.139 165.389 185.139 168.021C185.139 170.653 187.273 172.786 189.905 172.786Z" stroke="black" stroke-width="3.65" stroke-miterlimit="10"/>
<path d="M189.905 172.786C192.537 172.786 194.67 170.653 194.67 168.021C194.67 165.389 192.537 163.255 189.905 163.255C187.273 163.255 185.139 165.389 185.139 168.021C185.139 170.653 187.273 172.786 189.905 172.786Z" stroke="black" stroke-width="3.65" stroke-miterlimit="10"/>
<path d="M153.047 104.839C153.448 105.875 153.949 106.87 154.543 107.809C154.605 107.912 155.045 107.717 155.409 108.238C156.157 109.302 157.569 109.424 157.939 108.986L157.904 108.962L157.504 108.719L158.406 108.927L158.998 108.949L159.87 108.098C159.87 108.098 155.717 104.98 157.799 102.809C157.799 102.809 157.799 102.809 157.815 102.793C157.86 102.745 157.901 102.694 157.936 102.639C158.039 102.477 157.915 102.485 158.112 102.455C158.26 102.312 158.438 102.204 158.632 102.138C158.827 102.072 159.034 102.051 159.238 102.074C159.468 102.083 159.69 102.165 159.87 102.309C159.897 100.73 159.754 98.9585 160.72 98.2592C161.109 97.4492 161.752 96.9092 162.778 96.9497C163.075 96.9632 163.345 96.9848 163.601 97.0199L166.379 97.6895C166.965 96.8795 167.4 97.5734 168.218 97.8434C168.499 97.9374 168.798 97.9614 169.09 97.9136C169.486 97.8459 169.851 97.6571 170.135 97.3736C170.659 96.11 170.753 94.5278 170.294 93.5774C170.294 93.5774 167.743 93.4829 165.974 93.0131C164.206 92.5433 163.571 89.3546 158.501 92.5757C158.236 92.7426 157.94 92.8547 157.631 92.9051C157.091 92.978 156.235 93.0104 155.625 92.6675C155.58 92.6441 155.537 92.6171 155.496 92.5865C155.429 92.5485 155.368 92.5012 155.315 92.4461C155.466 92.5946 154.993 93.9851 154.75 94.6763C154.749 94.6842 154.749 94.6925 154.75 94.7006C154.721 94.7951 154.686 94.8734 154.664 94.9355V94.9544C154.654 94.9836 154.642 95.0125 154.629 95.0409C154.388 95.5738 154.076 96.0717 153.7 96.5204L153.517 96.7661C153.27 97.0858 153.057 97.4295 152.879 97.7921C151.832 99.971 152.142 102.496 153.047 104.839Z" fill="#3FBDF1"/>
<path d="M157.926 108.996C158.844 109.091 159.705 108.934 159.875 108.097L159.905 107.954C159.905 107.954 155.944 105.225 157.804 102.808C157.804 102.808 157.804 102.808 157.821 102.792C157.837 102.776 157.875 102.716 157.902 102.684C157.929 102.651 157.931 102.651 157.942 102.638C158.007 102.568 158.055 102.511 158.118 102.454C158.568 102.012 158.928 101.936 159.243 102.074C159.322 102.108 159.395 102.157 159.457 102.217C159.954 102.641 160.237 103.64 160.391 104.377C160.186 102.913 159.9 99.9623 160.726 98.2586C161.115 97.4486 161.757 96.9086 162.783 96.9491L163.607 97.0193L166.385 97.6889L168.224 97.8428L169.096 97.913C169.492 97.8452 169.857 97.6565 170.141 97.373C171.464 96.1283 171.952 93.0989 171.199 91.6544C171.199 91.6544 168.55 91.7246 166.695 91.3493C164.841 90.974 164.041 87.4748 158.547 91.6706C157.661 92.2106 156.63 92.6561 155.631 92.1809C155.643 92.3426 155.643 92.5051 155.631 92.6669C155.598 92.9428 155.519 93.2115 155.396 93.4607C155.196 93.8711 154.986 94.2707 154.756 94.6757C154.754 94.6835 154.754 94.6919 154.756 94.7C154.537 95.0861 154.302 95.4722 154.078 95.8556C153.946 96.0824 153.808 96.3011 153.7 96.5198C153.24 97.3076 152.903 98.1619 152.701 99.0524C152.493 100.085 152.437 101.143 152.537 102.192C152.619 103.094 152.8 103.984 153.077 104.847C153.576 106.467 154.062 107.757 155.752 108.435C156.45 108.714 157.18 108.902 157.926 108.996Z" stroke="black" stroke-width="3.65" stroke-miterlimit="10"/>
<path d="M168.34 100.283C168.34 100.283 165.664 100.219 164.967 102.443" stroke="black" stroke-width="3.65" stroke-miterlimit="10"/>
<path d="M169.317 97.9614L169.374 102.908C169.382 103.058 169.436 103.203 169.53 103.321C170.103 104.212 170.627 105.138 171.134 106.072C171.197 106.186 171.23 106.314 171.231 106.443C171.233 106.573 171.203 106.701 171.143 106.817C171.084 106.932 170.997 107.031 170.891 107.105C170.784 107.179 170.661 107.226 170.532 107.241C169.941 107.289 169.345 107.229 168.774 107.066" stroke="black" stroke-width="3.65" stroke-miterlimit="10"/>
<path d="M167.606 103.352C167.991 103.319 168.271 102.925 168.231 102.473C168.192 102.022 167.848 101.683 167.463 101.717C167.079 101.75 166.799 102.144 166.838 102.595C166.878 103.047 167.222 103.386 167.606 103.352Z" fill="black"/>
<path d="M169.56 107.582C168.869 110.322 166.352 115.204 162.81 114.423C161.147 114.056 160.01 112.344 158.911 111.17" stroke="black" stroke-width="3.65" stroke-linecap="round" stroke-linejoin="round"/>
<path d="M205.2 159.665C209.215 161.722 211.95 165.786 211.95 170.465C211.95 175.29 209.053 179.456 204.841 181.449L205.2 159.665Z" fill="#3FBDF1"/>
<path d="M146.34 211.284H130.437V218.514H150.755V215.701C150.755 214.53 150.29 213.407 149.462 212.578C148.634 211.75 147.511 211.285 146.34 211.284Z" stroke="black" stroke-width="3.65" stroke-miterlimit="10"/>
<path d="M161.104 113.506C157.667 114.256 152.934 118.838 152.934 118.838" stroke="black" stroke-width="3.65" stroke-miterlimit="10"/>
<path d="M168.34 110.657C168.34 110.657 166.784 111.07 166.134 109.021" stroke="black" stroke-width="3.65" stroke-miterlimit="10"/>
<path d="M84.904 179.28C84.904 179.28 74.7763 186.173 82.204 195.885" stroke="black" stroke-width="3.65" stroke-miterlimit="10"/>
<path d="M66.0448 223.952H62.1001V218.514C62.1379 218.133 62.1784 217.761 62.227 217.391C63.8929 204.636 75.0466 195.251 87.9094 195.251H124.254V212.261C124.254 213.083 124.415 213.896 124.73 214.656C125.044 215.415 125.504 216.105 126.086 216.686C126.666 217.267 127.356 217.728 128.115 218.043C128.875 218.358 129.688 218.52 130.51 218.52H151.381C156.372 218.533 161.282 217.255 165.634 214.812C175.068 209.472 184.904 198.72 185.139 174.882V168.021" stroke="black" stroke-width="3.65" stroke-miterlimit="10"/>
<path d="M62.3429 158.844C62.3408 158.595 62.3626 158.346 62.4077 158.101C62.6048 156.905 63.3203 155.998 64.1168 155.034C65.1428 153.797 66.1607 152.561 67.1867 151.332C72.908 144.504 78.4943 137.562 84.2318 130.75C85.6385 129.073 87.0857 127.432 88.622 125.874C94.0058 120.406 100.232 115.614 107.05 112.053C112.925 109.004 119.167 106.342 125.72 105.186C128.248 104.724 130.821 104.556 133.388 104.687H133.474C136.035 104.824 138.559 105.352 140.959 106.253C143.969 107.395 146.869 108.853 148.945 111.267C149.401 111.794 149.808 112.362 150.16 112.962C151.724 115.611 152.796 118.443 153.892 121.3C159.151 135.07 168.742 147.266 182.571 153.082C182.814 153.192 183.057 153.292 183.306 153.39C183.397 153.43 183.492 153.462 183.576 153.495C183.811 153.595 184.054 153.681 184.305 153.765" stroke="black" stroke-width="3.65" stroke-miterlimit="10"/>
<path d="M205.2 157.551C207.528 158.512 209.518 160.142 210.918 162.235C212.318 164.328 213.066 166.79 213.066 169.308C213.066 171.826 212.318 174.288 210.918 176.381C209.518 178.474 207.528 180.104 205.2 181.065" stroke="black" stroke-width="3.65" stroke-miterlimit="10"/>
<path d="M115.79 226.578H65.2402C66.6583 220.95 69.9147 215.955 74.4934 212.388C79.0721 208.82 84.7105 206.883 90.5149 206.884H111.183C112.405 206.884 113.577 207.37 114.44 208.233C115.304 209.097 115.79 210.269 115.79 211.49V226.578Z" stroke="black" stroke-width="3.65" stroke-miterlimit="10"/>
<path d="M65.2402 226.579H115.79H175.06" stroke="black" stroke-width="3.65" stroke-miterlimit="10"/>
<path d="M188.757 155.861H203.424C203.891 155.861 204.34 156.047 204.67 156.377C205.001 156.708 205.187 157.156 205.187 157.624V181.249C205.187 181.48 205.141 181.709 205.052 181.923C204.964 182.137 204.834 182.331 204.67 182.495C204.506 182.658 204.312 182.788 204.098 182.876C203.884 182.964 203.655 183.01 203.424 183.009C202.605 183.011 201.821 183.337 201.243 183.916C200.665 184.495 200.34 185.28 200.34 186.098V198.518C200.33 200.622 201.007 202.672 202.27 204.355C203.532 206.038 205.31 207.262 207.333 207.841C211.762 209.078 215.785 211.464 218.996 214.756C222.207 218.048 224.491 222.129 225.618 226.587H175.06C176.477 220.956 179.734 215.96 184.314 212.391C188.894 208.822 194.534 206.884 200.34 206.885" stroke="black" stroke-width="3.65" stroke-miterlimit="10"/>
<path d="M109.204 226.579C110.133 229.516 110.357 232.63 109.857 235.67C109.357 238.709 108.148 241.588 106.328 244.074C104.507 246.559 102.127 248.58 99.3795 249.973C96.6322 251.366 93.595 252.092 90.5146 252.092C87.4341 252.092 84.3969 251.366 81.6497 249.973C78.9022 248.58 76.5218 246.559 74.7015 244.074C72.8812 241.588 71.6721 238.709 71.1723 235.67C70.6725 232.63 70.8961 229.516 71.8252 226.579" stroke="black" stroke-width="3.65" stroke-miterlimit="10"/>
<path d="M219.026 226.579C219.956 229.516 220.181 232.631 219.681 235.672C219.182 238.712 217.973 241.592 216.152 244.078C214.332 246.564 211.951 248.586 209.203 249.98C206.455 251.373 203.417 252.099 200.336 252.099C197.254 252.099 194.217 251.373 191.469 249.98C188.721 248.586 186.34 246.564 184.519 244.078C182.699 241.592 181.489 238.712 180.99 235.672C180.491 232.631 180.715 229.516 181.645 226.579" stroke="black" stroke-width="3.65" stroke-miterlimit="10"/>
<path d="M200.335 235.797C202.154 235.797 203.629 234.322 203.629 232.503C203.629 230.684 202.154 229.209 200.335 229.209C198.515 229.209 197.041 230.684 197.041 232.503C197.041 234.322 198.515 235.797 200.335 235.797Z" fill="black"/>
<path d="M90.5147 235.797C92.334 235.797 93.8087 234.322 93.8087 232.503C93.8087 230.684 92.334 229.209 90.5147 229.209C88.6954 229.209 87.2207 230.684 87.2207 232.503C87.2207 234.322 88.6954 235.797 90.5147 235.797Z" fill="black"/>
<path d="M124.254 195.248H128.925" stroke="black" stroke-width="3.65" stroke-miterlimit="10"/>
<path d="M178.84 226.468C178.821 226.541 178.813 226.579 178.813 226.579H175.06C175.075 226.543 175.086 226.506 175.092 226.468H178.84Z" fill="#D7E8F0"/>
<path d="M75.6838 250.493C74.4083 249.44 73.2471 248.255 72.2197 246.958" stroke="black" stroke-width="3.65" stroke-miterlimit="10"/>
<path d="M113.826 232.5C113.835 236.992 112.538 241.391 110.092 245.16" stroke="black" stroke-width="3.65" stroke-miterlimit="10"/>
<path d="M178.397 239.49C177.934 237.906 177.641 236.277 177.522 234.63" stroke="black" stroke-width="3.65" stroke-miterlimit="10"/>
<path d="M223.082 232.5C223.091 236.992 221.794 241.391 219.348 245.16" stroke="black" stroke-width="3.65" stroke-miterlimit="10"/>
<path d="M69.506 242.627C67.9824 239.469 67.1943 236.006 67.2002 232.5" stroke="black" stroke-width="3.65" stroke-miterlimit="10"/>
<path d="M121.079 102.973C121.079 102.973 107.549 104.933 93.0151 117.202" stroke="black" stroke-width="3.65" stroke-miterlimit="10"/>
</svg>
