<svg width="144" height="130" viewBox="0 0 144 130" fill="none" xmlns="http://www.w3.org/2000/svg">
<path d="M116.951 83.5015H82.6938C81.9598 83.5015 81.3647 84.0965 81.3647 84.8305V108.979C81.3647 109.713 81.9598 110.308 82.6938 110.308H116.951C117.685 110.308 118.28 109.713 118.28 108.979V84.8305C118.28 84.0965 117.685 83.5015 116.951 83.5015Z" fill="#3FBDF1"/>
<path d="M115.223 84.7566H84.423C83.6891 84.7566 83.094 85.3516 83.094 86.0856V107.724C83.094 108.458 83.6891 109.053 84.423 109.053H115.223C115.957 109.053 116.552 108.458 116.552 107.724V86.0856C116.552 85.3516 115.957 84.7566 115.223 84.7566Z" fill="#3FBDF1"/>
<path d="M133.33 110.308H120.972C120.618 110.308 120.268 110.239 119.942 110.103C119.615 109.968 119.319 109.77 119.069 109.52C118.819 109.27 118.621 108.973 118.486 108.647C118.351 108.32 118.281 107.97 118.281 107.617V88.3465C118.281 88.1733 118.316 88.0017 118.383 87.842C118.45 87.6823 118.549 87.5377 118.672 87.4165C118.796 87.2952 118.943 87.2 119.104 87.1362C119.265 87.0725 119.437 87.0415 119.611 87.0452L126.485 87.1068C126.67 87.111 126.852 87.1543 127.018 87.2339C127.185 87.3135 127.333 87.4278 127.452 87.5688L135.781 97.4248C137.099 98.7817 137.836 100.599 137.835 102.491V105.802C137.835 106.394 137.719 106.98 137.493 107.527C137.267 108.074 136.935 108.571 136.516 108.989C136.098 109.408 135.601 109.739 135.055 109.966C134.508 110.192 133.922 110.309 133.33 110.308Z" fill="#3FBDF1"/>
<path d="M99.8214 104.678C104.114 104.678 107.594 101.198 107.594 96.9059C107.594 92.6133 104.114 89.1335 99.8214 89.1335C95.5289 89.1335 92.0491 92.6133 92.0491 96.9059C92.0491 101.198 95.5289 104.678 99.8214 104.678Z" fill="#D7E8F0"/>
<path d="M120.972 96.8561V90.3065C120.972 90.1124 121.049 89.9264 121.186 89.7892C121.323 89.6519 121.509 89.575 121.703 89.575H125.379C125.492 89.5751 125.602 89.6011 125.703 89.6507C125.804 89.7005 125.891 89.7724 125.96 89.8614L130.997 96.4079C131.081 96.5162 131.132 96.6459 131.146 96.7818C131.159 96.918 131.135 97.0552 131.074 97.1779C131.014 97.3005 130.92 97.4038 130.804 97.4759C130.688 97.5481 130.553 97.5862 130.417 97.586H121.708C121.612 97.5866 121.516 97.5682 121.427 97.5318C121.338 97.4955 121.257 97.4417 121.188 97.374C121.12 97.3061 121.066 97.2255 121.028 97.1367C120.991 97.0476 120.972 96.9523 120.972 96.8561Z" fill="white"/>
<path d="M84.5063 110.251V110.304C84.5063 111.898 85.1397 113.428 86.2672 114.555C87.3948 115.682 88.924 116.316 90.5185 116.316C92.113 116.316 93.6422 115.682 94.7697 114.555C95.8973 113.428 96.5307 111.898 96.5307 110.304" stroke="#CCDDE2" stroke-width="4.57" stroke-miterlimit="10"/>
<path d="M120.972 110.303C120.972 111.898 121.605 113.427 122.733 114.554C123.86 115.682 125.389 116.315 126.983 116.315C128.578 116.315 130.107 115.682 131.234 114.554C132.361 113.427 132.995 111.898 132.995 110.303" fill="#3FBDF1"/>
<path d="M120.987 54.6079C125.986 53.5391 131.368 55.4688 135.029 59.0354C138.69 62.602 140.727 67.6317 141.252 72.7152C142.098 80.8048 139.831 90.1496 135.371 96.944" stroke="#CCDDE2" stroke-width="4.57" stroke-miterlimit="10"/>
<path d="M76.2134 22.0861C84.5879 19.0677 94.6272 21.7442 102.481 42.5681C105.047 49.3734 108.305 52.5781 112.896 52.9785" stroke="#CCDDE2" stroke-width="4.57" stroke-miterlimit="10"/>
<path d="M44.2075 32.0943C44.2075 32.0943 53.5553 31.0163 53.6123 42.4878L79.78 34.8679L83.8887 33.5758C83.8887 33.5758 77.9936 26.4241 71.1929 25.1936C71.2662 25.8886 71.4039 26.5753 71.6041 27.2449C71.9552 28.4769 70.791 29.2007 69.1755 29.6596C67.5601 30.1185 64.2891 27.4035 63.727 25.0088C63.727 25.0088 64.534 24.2804 61.5279 24.8024C58.5218 25.3245 49.4004 27.4435 44.2075 32.0943Z" fill="#2E2E2E"/>
<path d="M3.62388 87.7659C3.87903 87.9034 4.16411 87.9758 4.45394 87.9769C4.71514 87.9766 4.97292 87.9174 5.20828 87.8042C5.44362 87.6909 5.65054 87.5263 5.81376 87.3224L11.712 80.0921L16.4721 74.1184L12.5759 71.9332C12.1721 71.7052 11.6944 71.647 11.2477 71.7712C10.8009 71.8954 10.4218 72.1917 10.1935 72.5954L2.92934 85.3512C2.81396 85.5548 2.74037 85.7793 2.71286 86.0117C2.68537 86.2441 2.70453 86.4795 2.76921 86.7045C2.83389 86.9294 2.9428 87.1391 3.08956 87.3213C3.23632 87.5036 3.41797 87.6547 3.62388 87.7659Z" fill="#2E2E2E"/>
<path d="M93.406 121.878L98.3155 126.708C98.7401 127.127 99.3127 127.362 99.9094 127.362H112.194C112.699 127.365 113.186 127.174 113.553 126.827C113.92 126.48 114.139 126.006 114.165 125.501C114.191 124.997 114.022 124.502 113.692 124.12C113.363 123.737 112.898 123.496 112.396 123.448L105.58 122.742L93.406 121.878Z" fill="#2E2E2E"/>
<path d="M70.7864 24.6443V24.9769V25.0616C73.5026 25.7427 76.0603 26.9456 78.317 28.6036C78.682 28.8716 79.0392 29.1426 79.395 29.429C79.4042 28.2802 79.3057 27.1267 78.933 26.041C78.6319 25.1081 78.0664 24.2825 77.3052 23.6648C76.6353 23.1304 75.8422 22.787 75.0445 22.4775C74.2468 22.1679 73.4644 21.8969 72.7345 21.4796C72.1185 21.1417 71.5802 20.6785 71.1544 20.1197C71.0055 19.9175 70.9128 19.6795 70.8857 19.4298C70.8588 19.1802 70.8983 18.9278 71.0004 18.6983C70.9287 18.6935 70.8577 18.6795 70.7895 18.6567L70.7864 24.6443Z" fill="#3FBDF1"/>
<path d="M70.7864 24.6443V24.9769V25.0616C73.5026 25.7427 76.0603 26.9456 78.317 28.6036C78.682 28.8716 79.0392 29.1426 79.395 29.429C79.4042 28.2802 79.3057 27.1267 78.933 26.041C78.6319 25.1081 78.0664 24.2825 77.3052 23.6648C76.6353 23.1304 75.8422 22.787 75.0445 22.4775C74.2468 22.1679 73.4644 21.8969 72.7345 21.4796C72.1185 21.1417 71.5802 20.6785 71.1544 20.1197C71.0055 19.9175 70.9128 19.6795 70.8857 19.4298C70.8588 19.1802 70.8983 18.9278 71.0004 18.6983C70.9287 18.6935 70.8577 18.6795 70.7895 18.6567L70.7864 24.6443Z" fill="#3FBDF1"/>
<path d="M33.2644 50.5932C34.284 51.3248 35.4187 51.8812 36.6216 52.2394C37.1375 52.3934 35.9178 52.9694 36.4476 53.0726C34.3516 48.1261 35.847 40.5216 42.4782 33.5823C43.607 32.3996 46.2035 30.9012 47.4832 29.8601C49.5422 28.1862 51.7952 27.969 53.9512 26.9649C54.9148 26.52 55.9042 26.1333 56.9142 25.8069C58.7095 25.2103 60.5626 24.8036 62.4428 24.5933C62.8693 24.541 63.2913 24.504 63.7179 24.4809C63.6136 23.7477 63.6346 23.0021 63.7795 22.2756C64.1722 20.2829 64.8575 19.1387 66.1049 17.5679C66.8872 16.5792 68.1069 14.2153 66.4791 13.4006C65.4535 12.8893 65.3595 11.8437 65.8415 11.2061C66.2496 10.661 67.0735 10.413 68.093 11.0521C68.7968 11.5018 69.633 11.5311 70.4369 11.3108C71.0635 10.9459 71.607 10.4538 72.0323 9.86633C73.2135 8.17233 73.2551 5.60823 71.4086 4.36545C70.3999 3.68631 69.1156 3.52153 67.9098 3.65243C67.3709 3.7148 66.8402 3.83399 66.3266 4.00817C66.3245 4.00724 66.322 4.00678 66.3197 4.00678C66.3172 4.00678 66.3149 4.00724 66.3128 4.00817C64.1321 5.18473 62.5706 7.36075 61.8206 9.81243C61.3802 11.2616 60.8827 12.6968 60.3006 14.1029C59.8232 15.2563 59.4906 16.6593 58.4249 17.4462C57.9806 17.7762 57.4756 18.0154 56.9388 18.15C54.9276 19.4251 52.1371 18.689 49.938 18.4179C48.1794 18.1776 46.389 18.3587 44.7143 18.9462C42.8386 19.8933 41.2262 21.4102 39.9172 23.3767C37.7612 26.6354 40.0435 31.3339 36.4291 33.9042C35.3403 34.6742 34.079 35.147 32.8871 35.7522C31.1808 36.6207 29.8071 37.8527 29.3004 39.7562C28.2886 43.5692 30.0797 48.2816 33.2644 50.5932Z" fill="#3FBDF1"/>
<path d="M77.8518 78.4858L105.657 122.698L93.7985 122.137L89.3756 118.102H84.3198C84.3198 118.102 70.5399 97.8945 67.3798 94.4695C64.2197 91.0445 67.3798 82.3636 67.3798 82.3636L77.8518 78.4858Z" fill="white"/>
<path d="M121.659 127.36H36.1255" stroke="black" stroke-width="4.57" stroke-miterlimit="10"/>
<path d="M73.9233 8.32025C74.1429 8.77548 74.3308 9.24518 74.4854 9.72627C74.7103 10.5101 74.467 10.9937 74.8088 11.7391C74.9259 11.9962 75.0953 12.4321 75.2708 12.874C75.3217 12.7709 75.3694 12.6862 75.3971 12.6199C76.7385 9.63387 74.9752 8.19397 74.1266 7.70117C74.0741 7.91231 74.0062 8.11928 73.9233 8.32025Z" fill="#3FBDF1"/>
<path d="M73.9233 8.32025C74.1429 8.77548 74.3308 9.24518 74.4854 9.72627C74.7103 10.5101 74.467 10.9937 74.8088 11.7391C74.9259 11.9962 75.0953 12.4321 75.2708 12.874C75.3217 12.7709 75.3694 12.6862 75.3971 12.6199C76.7385 9.63387 74.9752 8.19397 74.1266 7.70117C74.0741 7.91231 74.0062 8.11928 73.9233 8.32025Z" fill="#3FBDF1"/>
<path d="M61.243 88.3135C59.8092 93.354 57.4961 98.4652 55.5788 101.696C54.1927 104.027 51.9759 105.748 49.3736 106.512C46.7713 107.277 43.9762 107.028 41.5494 105.817L20.5053 95.3745V90.6482L11.7119 80.0976L5.81375 87.3218C5.64993 87.5246 5.44274 87.6881 5.20742 87.8003C4.9721 87.9125 4.71462 87.9706 4.45393 87.9701C4.14801 87.9684 3.84782 87.887 3.58302 87.7337C3.31821 87.5805 3.09796 87.3609 2.94401 87.0965C2.79006 86.8322 2.70771 86.5322 2.70514 86.2262C2.70257 85.9204 2.77985 85.619 2.92933 85.3521L10.1935 72.6025C10.4219 72.199 10.801 71.9025 11.2476 71.7784C11.6944 71.6541 12.1721 71.7125 12.5759 71.9403L16.4721 74.1255L38.8021 86.6319C39.1735 86.8398 39.5889 86.9563 40.0142 86.9724C40.4394 86.9882 40.8624 86.9029 41.2482 86.7233C41.6341 86.5438 41.9719 86.2752 42.2335 85.9396C42.4953 85.6041 42.6735 85.2111 42.7537 84.7931L45.3994 70.9331" stroke="black" stroke-width="4.57" stroke-miterlimit="10"/>
<path d="M51.5579 80.2952L57.279 84.9491C63.3004 89.6995 68.5407 95.3635 72.8099 101.735L84.2397 118.147H102.689" stroke="black" stroke-width="4.57" stroke-miterlimit="10"/>
<path d="M89.6221 118.15L93.4058 121.878L98.3154 126.708C98.7399 127.127 99.3127 127.362 99.9093 127.362H112.194C112.699 127.365 113.185 127.174 113.553 126.827C113.92 126.48 114.139 126.006 114.165 125.501C114.191 124.997 114.022 124.502 113.692 124.12C113.363 123.737 112.898 123.496 112.396 123.448L105.58 122.742L72.6759 70.4207C70.9819 67.7195 69.4727 63.2735 70.7863 60.3614C75.7898 49.2842 75.357 38.5535 75.357 38.5535" stroke="black" stroke-width="4.57" stroke-miterlimit="10"/>
<path d="M70.7864 17.7145V24.5983V24.9309V25.0156C71.4933 26.0474 71.8506 27.5104 71.1745 28.6069C70.2705 30.0745 68.2732 29.8312 67.0057 29.0104C66.6334 28.7687 66.2779 28.5022 65.9416 28.2126C64.8152 27.2337 64.0867 25.8762 63.8934 24.3965C63.7894 23.6638 63.8098 22.9187 63.9535 22.1928C64.3492 20.2016 65.0315 19.0573 66.2835 17.4835C67.0658 16.4963 68.2855 14.1309 66.6546 13.3162C64.7466 12.3645 66.0679 9.57864 68.2685 10.9708C69.9748 12.0488 72.4265 10.7044 73.4399 9.25524C74.621 7.56124 74.6641 4.99714 72.8161 3.75436C71.8074 3.07522 70.5231 2.91044 69.3188 3.04134C65.6459 3.44482 63.0341 6.31538 61.9884 9.72802C61.548 11.1772 61.0506 12.6124 60.47 14.0185C59.991 15.1735 59.6584 16.5749 58.5943 17.3618C56.5692 18.8772 53.6339 18.0841 51.3409 17.8038C46.5669 17.217 42.7168 19.3315 40.0865 23.2893C37.9305 26.5479 40.2128 31.2464 36.5969 33.8167C35.5096 34.5867 34.2484 35.0595 33.0549 35.6647C31.347 36.5317 29.9749 37.7653 29.4667 39.6687C28.4549 43.4941 30.2459 48.208 33.4291 50.5195C34.8875 51.5791 36.5938 52.2135 38.3663 52.5585" stroke="black" stroke-width="4.57" stroke-miterlimit="10"/>
<path d="M80.2095 30.3142C80.2188 30.2264 80.2234 30.1417 80.2265 30.0586C80.3065 28.5478 80.2973 26.9786 79.8045 25.5325C79.5028 24.6004 78.9375 23.7755 78.1767 23.1578C77.5037 22.6235 76.7122 22.277 75.9175 21.969C75.1229 21.661 74.336 21.3899 73.6075 20.971C72.9905 20.6355 72.4522 20.1719 72.029 19.6112C71.8794 19.4101 71.7856 19.1729 71.7572 18.9239C71.7287 18.6747 71.7668 18.4226 71.8674 18.1929" stroke="black" stroke-width="4.57" stroke-miterlimit="10"/>
<path d="M20.5068 90.6499V76.3833" stroke="black" stroke-width="4.57" stroke-miterlimit="10"/>
<path d="M69.3064 16.1737C69.8593 16.9638 70.6092 17.8169 71.5548 18.1265C72.7791 18.5238 73.603 17.4858 74.0419 16.474C74.3052 15.8719 74.4854 15.2313 74.6979 14.6091C74.7672 14.4043 74.8088 14.3011 75.0444 14.2888C75.2801 14.2765 75.5249 14.3257 75.7652 14.3257C75.7835 14.3267 75.8015 14.3224 75.8174 14.3133C75.8332 14.3042 75.8462 14.2908 75.8546 14.2745C75.8631 14.2583 75.8666 14.24 75.865 14.2218C75.8633 14.2036 75.8565 14.1862 75.8452 14.1717C75.5218 13.6805 75.0398 12.3376 74.795 11.8001C74.4562 11.0548 74.701 10.5681 74.4731 9.78891C74.3176 9.30812 74.1308 8.83796 73.9141 8.38135" stroke="black" stroke-width="4.57" stroke-miterlimit="10"/>
<path d="M74.2744 6.94336C74.2744 6.94336 77.6116 8.22156 75.8883 12.0685C75.7821 12.3026 75.5203 12.7877 75.3971 13.0079" stroke="black" stroke-width="4.57" stroke-miterlimit="10"/>
<path d="M74.0898 16.3574C73.8228 16.3936 73.5517 16.3314 73.3272 16.1823C73.1028 16.0332 72.9402 15.8075 72.8701 15.5474" stroke="black" stroke-width="4.57" stroke-miterlimit="10"/>
<path d="M74.6548 11.2046C73.9633 10.6425 73.2057 11.3586 72.7437 11.8837" stroke="black" stroke-width="4.57" stroke-miterlimit="10"/>
<path d="M70.7864 25.0154C73.5039 25.6967 76.063 26.8997 78.3216 28.5574C78.9776 29.0317 79.6106 29.5368 80.225 30.062C82.649 32.1194 84.7819 34.5002 86.8547 36.9073" stroke="black" stroke-width="4.57" stroke-miterlimit="10"/>
<path d="M89.9639 59.6146C89.9514 59.607 89.94 59.5976 89.93 59.5868C87.2104 56.8672 84.4707 54.1676 81.7434 51.4572C79.458 49.1872 76.4858 46.8634 75.0906 43.885" stroke="black" stroke-width="4.57" stroke-miterlimit="10"/>
<path d="M58.0752 79.1953C58.297 79.1245 58.5079 79.0537 58.7081 78.9797C58.7117 78.981 58.7154 78.981 58.7189 78.9797" stroke="black" stroke-width="4.57" stroke-miterlimit="10"/>
<path d="M37.3729 47.2161L53.6122 42.4883L83.4343 33.8042C84.8669 33.3917 86.4048 33.5632 87.7113 34.2812C89.018 34.9991 89.9873 36.2051 90.4074 37.6357L96.8123 59.6377C97.225 61.0702 97.0542 62.6078 96.3372 63.9148C95.6203 65.2219 94.4153 66.1921 92.9854 66.6139L61.2028 75.8662L58.169 76.7471L55.089 77.648L52.0552 78.5335L49.5912 79.2465L40.844 81.7937C39.4114 82.2069 37.8732 82.0358 36.5664 81.3177C35.2594 80.5997 34.2903 79.3932 33.8709 77.9622L27.4661 55.9602C27.053 54.5285 27.2235 52.9914 27.9402 51.685C28.6571 50.3786 29.862 49.4092 31.2914 48.9886L31.5209 48.9224L31.7134 48.8654L35.7975 47.675L37.3729 47.2161Z" fill="white"/>
<path d="M39.814 47.7902L54.8598 43.4105L82.4935 35.364C83.8219 34.9793 85.2486 35.1368 86.461 35.8022C87.6735 36.4675 88.5727 37.5865 88.9615 38.9137L94.8936 59.294C95.2757 60.6213 95.1178 62.0458 94.4544 63.2574C93.791 64.4687 92.6757 65.369 91.3516 65.762L61.8991 74.3367L59.0886 75.156L56.2288 75.9892L53.4183 76.8115L51.133 77.466L41.7806 80.238C40.4522 80.6232 39.0252 80.4658 37.8127 79.8004C36.6002 79.1349 35.7011 78.0158 35.3126 76.6883L29.3836 56.2972C28.9989 54.9699 29.1556 53.5441 29.8194 52.332C30.4833 51.1199 31.6001 50.22 32.9256 49.8292L33.1381 49.7676L33.3167 49.7168L38.3541 48.2076L39.814 47.7902Z" fill="#3FBDF1"/>
<path d="M41.4433 48.5138L55.3941 44.4528L82.0361 36.6527C83.2669 36.2985 84.5879 36.4457 85.7104 37.0624C86.8329 37.679 87.6656 38.7149 88.0267 39.9437L93.5307 58.8472C93.8852 60.078 93.7384 61.399 93.1224 62.5219C92.5064 63.6449 91.4713 64.4785 90.2428 64.8409L61.916 73.1338L59.3104 73.8915L56.66 74.6615L54.0528 75.4222L51.9415 76.0382L42.4227 78.841C41.191 79.1986 39.868 79.0528 38.7437 78.4358C37.6195 77.8188 36.7859 76.781 36.426 75.55L30.9205 56.6481C30.5656 55.4178 30.7123 54.0969 31.3283 52.9744C31.9444 51.8519 32.9799 51.0189 34.2084 50.6575L35.2525 50.3603L35.4188 50.311L40.0896 48.9127L41.4433 48.5138Z" fill="#3FBDF1"/>
<path d="M62.1792 59.7641L37.1065 66.8404C36.9728 66.8781 36.833 66.8892 36.695 66.8729C36.5571 66.8566 36.4238 66.8131 36.3026 66.7452C36.1814 66.6773 36.0748 66.5861 35.9889 66.477C35.9031 66.3678 35.8395 66.2427 35.8021 66.1089C35.7747 66.0165 35.7607 65.9206 35.7605 65.824C35.7616 65.5939 35.837 65.3703 35.9759 65.1867C36.1147 65.0033 36.3094 64.8697 36.5305 64.8061L61.6032 57.7344C61.5022 58.0796 61.4974 58.446 61.5894 58.7939C61.689 59.1672 61.8937 59.5038 62.1792 59.7641Z" fill="#3FBDF1"/>
<path d="M68.0359 57.3061C68.0355 57.537 67.9604 57.7613 67.8215 57.9458C67.6826 58.1302 67.4876 58.2646 67.2659 58.3287L65.4564 58.84C65.5594 58.481 65.5605 58.1005 65.4596 57.7409C65.3587 57.3813 65.1597 57.0569 64.885 56.8041L66.6945 56.2943C66.9643 56.2193 67.2528 56.2541 67.4969 56.3912C67.7409 56.5283 67.921 56.7565 67.9974 57.0258C68.0245 57.1167 68.0375 57.2113 68.0359 57.3061Z" fill="#D7E8F0"/>
<path d="M69.1756 61.3441C69.1748 61.5743 69.0994 61.7979 68.9605 61.9815C68.8216 62.1651 68.6269 62.2986 68.4056 62.362L43.4884 69.3906C43.6378 69.0452 43.6863 68.6646 43.6283 68.2929C43.5702 67.9211 43.4079 67.5734 43.1604 67.29L67.8297 60.3262C68.0995 60.2516 68.3876 60.2867 68.6317 60.4236C68.8756 60.5607 69.0557 60.7886 69.1325 61.0577C69.1611 61.1504 69.1756 61.2469 69.1756 61.3441Z" fill="#D7E8F0"/>
<path d="M40.4915 70.2282L38.2462 70.8611C38.1093 70.915 37.9627 70.9398 37.8156 70.9337C37.6687 70.9277 37.5246 70.8909 37.3926 70.8257C37.2606 70.7606 37.1437 70.6686 37.0495 70.5556C36.9552 70.4427 36.8856 70.3112 36.8451 70.1698C36.8046 70.0283 36.7943 69.88 36.8145 69.7343C36.8348 69.5885 36.8853 69.4486 36.9629 69.3236C37.0405 69.1986 37.1434 69.0912 37.2649 69.0082C37.3864 68.9254 37.5239 68.8688 37.6687 68.8422L39.6707 68.2786C39.6276 68.555 39.6407 68.8373 39.7092 69.1086C39.8292 69.5626 40.1064 69.9593 40.4915 70.2282Z" fill="#3FBDF1"/>
<path d="M62.8122 68.3445L39.549 74.9095C39.2793 74.9828 38.9915 74.9472 38.7479 74.8103C38.5042 74.6735 38.3241 74.4464 38.2461 74.178C38.219 74.0867 38.2061 73.9916 38.2076 73.8962C38.2081 73.6655 38.2834 73.4411 38.4223 73.2567C38.5611 73.0723 38.756 72.938 38.9776 72.8736L62.207 66.324C62.1098 66.6837 62.1151 67.0635 62.2219 67.4205C62.3288 67.7774 62.5333 68.0974 62.8122 68.3445Z" fill="#3FBDF1"/>
<path d="M70.483 65.3804C70.4833 65.6108 70.4081 65.8351 70.2691 66.0188C70.13 66.2027 69.9347 66.3359 69.713 66.3984L66.0647 67.4256L62.8153 68.3496C62.5364 68.1024 62.3319 67.7824 62.225 67.4254C62.1182 67.0684 62.1129 66.6888 62.2101 66.3291L65.5211 65.3958L69.1401 64.3733C69.4095 64.2972 69.6979 64.3311 69.9424 64.4674C70.1868 64.6035 70.3675 64.8311 70.4445 65.1002C70.4702 65.1913 70.4833 65.2857 70.483 65.3804Z" fill="#D7E8F0"/>
<path d="M65.4565 58.8397C65.3357 59.2622 65.0789 59.6334 64.7263 59.8956C64.3735 60.1579 63.9441 60.2968 63.5046 60.2909C63.0651 60.2849 62.6396 60.1345 62.2942 59.8627C61.9486 59.591 61.702 59.2129 61.5927 58.7873C61.5263 58.5326 61.5109 58.2674 61.5473 58.0068C61.5834 57.7462 61.6708 57.4954 61.804 57.2685C61.9373 57.0417 62.114 56.8433 62.324 56.6849C62.5341 56.5263 62.7732 56.4108 63.028 56.3448C63.3515 56.2606 63.6909 56.2588 64.0154 56.3395C64.3397 56.4202 64.6388 56.5808 64.8852 56.8068C65.1599 57.0597 65.3589 57.384 65.4598 57.7436C65.5606 58.1032 65.5596 58.4838 65.4565 58.8427V58.8397Z" fill="white"/>
<g opacity="0.72">
<path opacity="0.72" d="M64.3815 57.8791C64.4061 58.1216 64.3613 58.3663 64.2521 58.5844C64.1996 58.6922 64.1378 58.7954 64.0673 58.8924C64.0288 58.9432 63.8271 59.2343 63.7685 59.222C63.3712 59.1511 62.803 58.8416 62.6197 58.4273C62.5923 58.3622 62.5732 58.294 62.5627 58.224C62.5486 58.1226 62.5655 58.0192 62.6111 57.9276C62.6567 57.836 62.7289 57.76 62.8182 57.7102C62.9077 57.6603 63.0099 57.6385 63.112 57.6478C63.214 57.657 63.3107 57.6968 63.3897 57.762C63.4324 57.6578 63.5077 57.5702 63.6045 57.5126C63.7013 57.4548 63.8143 57.4303 63.9262 57.4425C64.0382 57.4547 64.1432 57.5029 64.2253 57.58C64.3074 57.6572 64.3622 57.7588 64.3815 57.8699V57.8791Z" fill="#3FBDF1"/>
</g>
<path d="M43.4883 69.3902C43.3239 69.7745 43.0435 70.0976 42.6862 70.3145C42.3291 70.5313 41.9128 70.6309 41.4961 70.5994C41.0796 70.5678 40.6832 70.4066 40.3627 70.1384C40.0422 69.8702 39.8137 69.5084 39.7091 69.1037C39.6406 68.8325 39.6275 68.5502 39.6706 68.2737C39.7353 67.8925 39.9087 67.538 40.1699 67.2529C40.4309 66.9677 40.7688 66.7638 41.1428 66.6659C41.5041 66.5701 41.8853 66.5783 42.2421 66.6895C42.5991 66.8005 42.9172 67.0102 43.1602 67.2942C43.4079 67.5776 43.57 67.9253 43.6281 68.2971C43.6862 68.6688 43.6376 69.0495 43.4883 69.3948V69.3902Z" fill="white"/>
<g opacity="0.72">
<path opacity="0.72" d="M42.4997 68.194C42.5238 68.4369 42.4786 68.6814 42.3688 68.8994C42.3176 69.0081 42.2557 69.1113 42.184 69.2074C42.1455 69.2582 41.9437 69.5492 41.8867 69.5369C41.4879 69.4661 40.9212 69.1565 40.7379 68.7407C40.7097 68.6759 40.6905 68.6075 40.6809 68.5375C40.6667 68.4361 40.6835 68.3328 40.7291 68.241C40.7747 68.1494 40.8469 68.0736 40.9364 68.0237C41.0257 67.9737 41.1281 67.952 41.2302 67.9612C41.3322 67.9704 41.4289 68.0103 41.5079 68.0755C41.5382 68.0009 41.5855 67.9342 41.6459 67.8808C41.7062 67.8274 41.7782 67.7886 41.8559 67.7675C41.9263 67.751 41.9995 67.749 42.0706 67.7616C42.1419 67.7744 42.2098 67.8017 42.27 67.8415C42.3304 67.8816 42.3818 67.9335 42.4214 67.994C42.4608 68.0547 42.4875 68.1227 42.4997 68.194Z" fill="#3FBDF1"/>
</g>
<path d="M66.0615 67.4253C65.9214 67.8862 65.6191 68.2809 65.2105 68.5362C64.8021 68.7915 64.3149 68.8904 63.8392 68.8145C63.3633 68.7386 62.9312 68.4929 62.6224 68.123C62.3138 67.7533 62.1493 67.284 62.1596 66.8025C62.17 66.3208 62.3543 65.8591 62.6786 65.5027C63.0029 65.1465 63.4452 64.9197 63.9237 64.8641C64.4023 64.8086 64.8848 64.9283 65.282 65.2009C65.6793 65.4735 65.9644 65.8808 66.0846 66.3473C66.1756 66.7019 66.1676 67.0748 66.0615 67.4253Z" fill="white"/>
<g opacity="0.72">
<path opacity="0.72" d="M64.9961 66.4458C65.0193 66.6885 64.974 66.9328 64.8652 67.1511C64.8133 67.2593 64.7514 67.3624 64.6804 67.4591C64.6419 67.5099 64.4401 67.8009 64.3831 67.7886C63.9843 67.7178 63.416 67.4083 63.2328 66.994C63.2052 66.9284 63.1861 66.8595 63.1758 66.7892C63.1616 66.6878 63.1784 66.5845 63.2241 66.4927C63.2697 66.4011 63.342 66.3253 63.4313 66.2753C63.5206 66.2254 63.623 66.2037 63.7251 66.2129C63.8271 66.2221 63.9238 66.262 64.0028 66.3272C64.046 66.2232 64.1217 66.1361 64.2187 66.0788C64.3155 66.0215 64.4284 65.9972 64.5404 66.0095C64.6523 66.0218 64.7572 66.0701 64.8394 66.1471C64.9215 66.2241 64.9765 66.3256 64.9961 66.4365V66.4458Z" fill="#3FBDF1"/>
</g>
<path d="M61.9299 72.8139C60.5947 72.8878 59.1579 70.9659 58.719 70.487C58.6703 70.436 58.6149 70.392 58.5542 70.3561L57.3607 69.3905L57.5609 70.9089C57.8797 71.6404 59.5629 73.2359 60.7625 75.0669C61.9622 76.898 60.8195 77.2984 60.1773 77.5309C59.5352 77.7635 58.8637 76.5499 59.1255 77.8682C59.3873 79.1864 57.8319 79.2049 56.8617 79.0401C55.8915 78.8753 55.5435 77.8081 55.7637 78.6459C55.9839 79.4836 55.257 80.095 54.601 80.1228C54.1036 80.1474 53.1472 79.476 52.716 79.1526C52.6175 79.6823 52.2617 80.6771 51.022 80.1474C49.3758 79.4436 47.7773 75.2379 46.556 70.9336C45.3348 66.6293 37.4254 58.7784 36.2719 50.4654C36.2719 50.4516 36.2719 50.4315 36.2719 50.4177C36.2103 49.7894 36.1791 49.1564 36.178 48.5189C36.1783 47.307 36.2959 46.0981 36.5291 44.9091C36.6959 44.0439 36.9186 43.1905 37.1959 42.3542L50.2551 44.9476C50.1658 45.0462 50.0765 45.1447 49.9872 45.2479C46.9303 48.7976 48.7167 53.299 51.0421 56.6039C53.4013 59.9672 56.1164 63.2906 59.2195 65.9979C60.1305 66.7908 60.982 67.65 61.7666 68.5681L61.5972 68.6621C61.7816 69.021 61.9873 69.3688 62.2132 69.7031C63.1357 70.9752 63.2712 72.7384 61.9299 72.8139Z" fill="white"/>
<path d="M53.6123 42.4883L83.4344 33.8042C84.8671 33.3917 86.4049 33.5632 87.7116 34.2812C89.0181 34.9991 89.9874 36.2051 90.4075 37.6357L96.8124 59.6377C97.2251 61.0702 97.0543 62.6078 96.3373 63.9148C95.6204 65.2219 94.4154 66.1921 92.9855 66.6139L61.203 75.8662" stroke="black" stroke-width="4.57" stroke-miterlimit="10"/>
<path d="M49.5835 79.2466L40.844 81.7938C39.4114 82.2071 37.8732 82.036 36.5664 81.3179C35.2594 80.5998 34.2903 79.3932 33.8709 77.9622L27.4661 55.9603C27.053 54.5285 27.2235 52.9914 27.9402 51.6852C28.6571 50.3788 29.862 49.4092 31.2914 48.9887L31.5209 48.9224L31.7134 48.8655L35.7975 47.675" stroke="black" stroke-width="4.57" stroke-miterlimit="10"/>
<path d="M58.1701 76.7466H58.1646" stroke="black" stroke-width="4.57" stroke-miterlimit="10"/>
<path d="M52.047 78.5334H52.0415" stroke="black" stroke-width="4.57" stroke-miterlimit="10"/>
<path d="M53.7078 70.0987C54.1374 72.4426 56.0902 74.982 58.1615 76.7407C58.7636 77.252 60.0942 77.8742 60.8164 77.2905C62.3749 76.0339 59.7107 73.9641 58.9761 73.1325C58.0845 72.1223 57.3637 70.938 57.0958 69.6028C57.0724 69.5204 57.0773 69.4326 57.1096 69.3533C57.1409 69.3102 57.1851 69.2783 57.2359 69.2626C57.2867 69.2468 57.3413 69.2478 57.3915 69.2656C57.4908 69.3022 57.5804 69.3612 57.6533 69.438C58.4972 70.208 59.2502 71.0597 60.0141 71.902C60.5546 72.5042 61.9606 73.2511 62.6506 72.4842C64.1474 70.8194 59.9109 66.9402 58.8267 65.9884C55.7267 63.278 53.0071 59.9547 50.6478 56.5944C48.3224 53.2896 46.536 48.7882 49.5929 45.2385C51.1883 43.3905 53.5507 42.5835 55.6605 41.4917C59.0639 39.7361 59.7646 36.8101 59.7646 36.8101" stroke="black" stroke-width="4.57" stroke-miterlimit="10"/>
<path d="M51.7305 72.481C51.7305 72.481 53.4922 77.5029 57.2344 79.066C57.4566 79.1649 57.6983 79.2125 57.9414 79.2052C58.1845 79.198 58.4228 79.1362 58.6389 79.0244C59.1009 78.7657 59.4782 78.2544 58.8299 77.2288" stroke="black" stroke-width="4.57" stroke-miterlimit="10"/>
<path d="M49.291 73.6545C49.9779 75.5179 50.8895 77.466 52.3556 78.852C53.024 79.4819 53.871 80.1056 54.8196 80.1456C55.9623 80.1934 56.0516 79.0415 55.5896 78.2576C55.4897 78.0896 55.3697 77.9345 55.2323 77.7956" stroke="black" stroke-width="4.57" stroke-miterlimit="10"/>
<path d="M52.3557 78.8523C52.3557 78.8523 52.2726 80.8543 50.6263 80.1475C48.98 79.4406 47.3769 75.2364 46.1603 70.9306C44.9437 66.6247 36.9896 58.7507 35.8608 50.4178L35.8731 50.5194C35.8731 50.5009 35.8731 50.4871 35.8731 50.4686C35.6808 48.6128 35.7658 46.7384 36.1257 44.9077C39.6908 26.865 63.7271 24.478 63.7271 24.478" stroke="black" stroke-width="4.57" stroke-miterlimit="10"/>
<path d="M99.3394 62.5817C98.6741 64.5452 97.0294 65.7972 95.0028 66.1022C94.1342 66.23 93.1979 66.347 92.3848 65.9482C91.7888 65.6571 91.202 64.978 91.3807 64.2649C91.1157 64.2683 90.8512 64.2383 90.5938 64.1756C90.2411 64.0909 89.8761 63.9231 89.7206 63.5981C89.565 63.2732 89.6744 62.8204 89.9269 62.5294C90.2021 62.258 90.5409 62.06 90.9125 61.9534C91.0028 61.9201 91.0947 61.8918 91.1882 61.8687C90.8874 61.8713 90.5868 61.8522 90.2888 61.8117C89.716 61.7378 89.0738 61.4929 88.9028 60.9447C88.8554 60.7584 88.8559 60.5631 88.9044 60.3771C88.9529 60.1909 89.0477 60.0201 89.18 59.8806C89.4495 59.6037 89.7874 59.4029 90.1595 59.2984C90.198 59.2892 90.2303 59.2753 90.2673 59.2661C89.5881 59.2569 88.8936 59.1213 88.5933 58.4776C88.4967 58.2489 88.4695 57.997 88.5146 57.7527C88.5597 57.5087 88.6754 57.283 88.8474 57.1039C89.448 56.4294 90.3474 56.3339 91.1959 56.2693C92.0444 56.2046 93.0762 56.1753 94.0757 56.1568C94.2928 56.1511 94.5057 56.0957 94.6982 55.9951C94.8905 55.8944 95.0574 55.7511 95.1859 55.576C95.3145 55.401 95.4013 55.1988 95.4397 54.9851C95.4782 54.7713 95.4672 54.5517 95.4078 54.3427C95.0182 52.9567 94.8534 51.4444 95.6742 51.0748C96.8985 50.5204 97.7424 52.0312 98.0936 52.9598C99.1669 55.8057 100.362 59.5756 99.3394 62.5817Z" fill="white"/>
<path d="M94.1759 61.4382C93.1857 61.6492 92.1831 61.8648 91.1791 61.8741C91.0857 61.8973 90.9936 61.9256 90.9034 61.9588C90.5318 62.0652 90.193 62.2632 89.9178 62.5347C89.6652 62.8258 89.5436 63.257 89.7114 63.6035C89.8793 63.95 90.232 64.0963 90.5846 64.181C90.8421 64.2435 91.1065 64.2735 91.3716 64.2703C91.9135 64.2592 92.4529 64.1916 92.9809 64.0686C93.0702 64.0501 94.1636 63.9238 94.2483 63.9038" stroke="black" stroke-width="4.57" stroke-miterlimit="10"/>
<path d="M90.2566 59.2712C90.2196 59.2805 90.1873 59.2943 90.1488 59.3036C89.7767 59.4078 89.4388 59.6087 89.1693 59.8857C89.0371 60.0251 88.9422 60.1959 88.8937 60.382C88.8452 60.5681 88.8447 60.7635 88.8921 60.9498C89.0708 61.4981 89.713 61.7429 90.2781 61.8169C90.5761 61.8572 90.8767 61.8763 91.1775 61.8738" stroke="black" stroke-width="4.57" stroke-miterlimit="10"/>
<path d="M95.0074 59.168C94.932 59.168 94.8611 59.168 94.7872 59.168L91.2082 59.2481C90.928 59.2481 90.5922 59.2758 90.2565 59.2666C89.5774 59.2573 88.8828 59.1218 88.5825 58.4781C88.486 58.2494 88.4587 57.9973 88.5039 57.7532C88.549 57.5091 88.6646 57.2835 88.8367 57.1044C89.4373 56.4299 90.3366 56.3344 91.1852 56.2697C92.0337 56.205 93.067 56.1789 94.0665 56.1573C94.2842 56.1524 94.4982 56.0974 94.6914 55.9968C94.8847 55.8964 95.0524 55.7528 95.1815 55.5773C95.3107 55.4018 95.3977 55.199 95.4362 54.9844C95.4747 54.7699 95.4633 54.5495 95.4032 54.3401C95.0136 52.9541 94.8457 51.4403 95.6681 51.0707C96.8924 50.5163 97.7363 52.027 98.0874 52.9557C99.1654 55.8016 100.362 59.5776 99.3395 62.5776C98.6726 64.5411 97.0295 65.7962 95.0044 66.098C94.1373 66.2274 93.1979 66.3444 92.3864 65.944C91.7935 65.6545 91.2052 64.9769 91.3823 64.2639" stroke="black" stroke-width="4.57" stroke-miterlimit="10"/>
<g opacity="0.54">
<path opacity="0.54" d="M66.6453 51.1001C66.6184 50.9222 66.5777 50.7466 66.5237 50.5749L65.9185 48.6176C65.7337 48.0185 65.5288 47.3856 65.0576 46.9729C64.1844 46.2029 62.8385 46.4908 61.722 46.8266L58.9823 47.6489C58.3524 47.8383 57.7133 48.0324 57.1636 48.3912C56.6138 48.75 56.1548 49.3075 56.0686 49.9589C56.0039 50.4394 56.1456 50.9199 56.2857 51.385L56.8494 53.2638C57.0357 53.8798 57.2421 54.5296 57.7272 54.9578C58.5911 55.7093 59.9109 55.4275 61.0105 55.1025L63.8133 54.2755C65.5042 53.7704 66.9179 52.8664 66.6453 51.1001Z" fill="white"/>
<path opacity="0.54" d="M62.8015 51.3297C62.9146 51.2108 62.9941 51.0637 63.0315 50.904C63.0689 50.7442 63.063 50.5772 63.0147 50.4203C62.9662 50.2635 62.8769 50.1225 62.7557 50.0116C62.6346 49.9007 62.4862 49.8242 62.3257 49.7897L61.4571 49.5926L60.5901 49.3954C60.4306 49.3569 60.2636 49.3616 60.1065 49.409C59.9493 49.4564 59.8076 49.5448 59.696 49.6651C59.5843 49.7854 59.5067 49.9332 59.4711 50.0934C59.4356 50.2537 59.4434 50.4205 59.4936 50.5766L59.757 51.4267L60.0188 52.2768C60.0651 52.4345 60.1526 52.5769 60.2723 52.6895C60.3921 52.8021 60.5396 52.8806 60.6998 52.9173C60.8599 52.9538 61.027 52.947 61.1836 52.8976C61.3404 52.848 61.481 52.7576 61.5911 52.6356L62.1963 51.9826L62.8015 51.3297Z" fill="#3FBDF1"/>
</g>
<path d="M124.83 116.316H117.279" stroke="#CCDDE2" stroke-width="4.57" stroke-miterlimit="10"/>
<path d="M115.993 69.1083C120.61 69.1083 124.354 65.3652 124.354 60.7476C124.354 56.1302 120.61 52.387 115.993 52.387C111.375 52.387 107.632 56.1302 107.632 60.7476C107.632 65.3652 111.375 69.1083 115.993 69.1083Z" fill="#3FBDF1"/>
<path d="M114.639 64.4963C114.542 64.4963 114.446 64.4772 114.356 64.44C114.266 64.4027 114.184 64.348 114.116 64.2792L111.96 62.1232C111.821 61.9844 111.743 61.7963 111.743 61.6001C111.743 61.4039 111.82 61.2155 111.959 61.0768C112.098 60.9379 112.286 60.8598 112.482 60.8596C112.678 60.8595 112.867 60.9372 113.005 61.076L114.644 62.7146L118.985 58.3702C119.124 58.2313 119.312 58.1532 119.508 58.1531C119.705 58.1529 119.893 58.2307 120.032 58.3694C120.171 58.508 120.249 58.6962 120.249 58.8924C120.249 59.0886 120.171 59.277 120.032 59.4159L115.161 64.2869C115.022 64.4229 114.834 64.4982 114.639 64.4963Z" fill="white"/>
</svg>
